<svg xmlns="http://www.w3.org/2000/svg" viewBox="0 0 750 500"><g id="freepik--background-simple--inject-216"><path d="M618.24,84.81S530.66,27.19,403.15,43.64s-229.88,91.62-314.84,151S-12.83,334.23,46,389.46s139.55,21,249.94,49.39,132.89,48.62,250.31,26.76S743.62,336.47,719.35,233.55,618.24,84.81,618.24,84.81Z" style="fill:#22C55E"></path><path d="M618.24,84.81S530.66,27.19,403.15,43.64s-229.88,91.62-314.84,151S-12.83,334.23,46,389.46s139.55,21,249.94,49.39,132.89,48.62,250.31,26.76S743.62,336.47,719.35,233.55,618.24,84.81,618.24,84.81Z" style="fill:#fff;opacity:0.8"></path></g><g id="freepik--Clouds--inject-216"><path d="M503.45,67.2a10.66,10.66,0,0,1-14.13-4.74c-3.44-6.7-9-14.65-16.57-16.48C459.11,42.69,450,69,445.47,72.3s-16.89-8.23-24-5.76-5,8.51-14.07,9.34-14.24-4.81-17.76-2.76a51.84,51.84,0,0,0-9.1,6.58H524.08s-5.2-8.22-13.65-12.34A7.55,7.55,0,0,0,503.45,67.2Z" style="fill:none;stroke:#263238;stroke-linecap:round;stroke-linejoin:round"></path><path d="M596.78,318.62a10.65,10.65,0,0,1-14.13-4.74c-3.44-6.7-9-14.65-16.57-16.48-13.64-3.29-22.74,23-27.28,26.32s-16.9-8.23-24-5.76-5,8.51-14.07,9.34-14.24-4.81-17.77-2.76a52,52,0,0,0-9.09,6.58H617.4s-5.19-8.22-13.64-12.34A7.55,7.55,0,0,0,596.78,318.62Z" style="fill:none;stroke:#263238;stroke-linecap:round;stroke-linejoin:round"></path><path d="M237.07,180.36A15.13,15.13,0,0,1,217,173.64c-4.88-9.53-12.77-20.82-23.53-23.42-19.38-4.67-32.3,32.72-38.76,37.39s-24-11.68-34.14-8.18-7.06,12.09-20,13.26-20.23-6.83-25.23-3.91a74.09,74.09,0,0,0-12.92,9.34H266.36S259,186.44,247,180.6A10.71,10.71,0,0,0,237.07,180.36Z" style="fill:none;stroke:#263238;stroke-linecap:round;stroke-linejoin:round"></path><path d="M416.8,428.76A15.15,15.15,0,0,1,396.73,422c-4.88-9.53-12.77-20.82-23.53-23.41-19.38-4.68-32.3,32.71-38.76,37.38s-24-11.68-34.14-8.18-7.06,12.09-20,13.26-20.23-6.83-25.23-3.91a74.09,74.09,0,0,0-12.92,9.34H446.09s-7.38-11.68-19.37-17.52A10.71,10.71,0,0,0,416.8,428.76Z" style="fill:none;stroke:#263238;stroke-linecap:round;stroke-linejoin:round"></path></g><g id="freepik--Dinosaur--inject-216"><path d="M593.21,300.76a127.44,127.44,0,0,1-20.16,15c-12.38,7.52-13.36,17.83-9.54,18.74,9.07,2.17,15.33-3.61,18.7-3.61S595.63,307.62,593.21,300.76Z" style="fill:#22C55E;stroke:#263238;stroke-linecap:round;stroke-linejoin:round"></path><path d="M570.78,372.87s-1.88,33.64,2.35,39.38S592,392.88,592.54,390,576.35,372.65,570.78,372.87Z" style="fill:#22C55E;stroke:#263238;stroke-linecap:round;stroke-linejoin:round"></path><path d="M649,382.53s12.16-2.9,13.35.81S655.33,399,655.33,399,650.82,386.81,649,382.53Z" style="fill:#263238;stroke:#263238;stroke-linecap:round;stroke-linejoin:round"></path><path d="M651.38,360.85s-3.2,21.29,3.75,34.19,17.18,10.36,18.71,13.43-.41,7.37-9.92,11-22,3.19-30.21-2.74-9.12-8.64-9.12-8.64Z" style="fill:#22C55E;stroke:#263238;stroke-linecap:round;stroke-linejoin:round"></path><path d="M641.81,393.06s-8.64,16.12-6.72,24.06l-9.19-5.06" style="fill:#263238;stroke:#263238;stroke-linecap:round;stroke-linejoin:round"></path><path d="M655.94,248.15s15.76,2.88,16.29,7.63S661,268.85,661,268.85l-2.47,8.39s13.79,6,11.51,12.11S647,297.23,647,297.23l-10.88,9.87,4.61,10.39s13.68-3.55,16,1.3-10.23,13.95-10.23,13.95l3,10.1s12.49-2.14,13,5.17-12.83,16.73-12.83,16.73l-1.83,8.74s-10-41.85-13.64-53.91-4.53-15.95-2.09-20.39,17-11.32,20.37-31.18Z" style="fill:#263238;stroke:#263238;stroke-linecap:round;stroke-linejoin:round"></path><path d="M603.1,224s-27.16-9.64-39,8.74c-10.29,16-6,45.1,14,59.8,12,8.81,12.39,8.22,12.39,8.22s-6.59,22-15.11,39.18-11.16,36.21,3.89,46.9a59.23,59.23,0,0,0,30.31,10.93s-2.13,27.1,3.26,28.65,13.07-6.39,25.28-25.13S656,356.13,653,340s-10.69-28.31-10.32-31.92,18.16-12.43,19.62-35c1.15-17.71-4.73-30.84-16-42S612.54,215.83,603.1,224Z" style="fill:#22C55E;stroke:#263238;stroke-linecap:round;stroke-linejoin:round"></path><path d="M646.64,277.3a5.19,5.19,0,1,1-5.18-5.19A5.18,5.18,0,0,1,646.64,277.3Z" style="fill:none;stroke:#263238;stroke-miterlimit:10"></path><path d="M632.49,287a3.07,3.07,0,1,1-3.06-3.07A3.06,3.06,0,0,1,632.49,287Z" style="fill:none;stroke:#263238;stroke-miterlimit:10"></path><circle cx="643.58" cy="294.99" r="2.12" style="fill:none;stroke:#263238;stroke-miterlimit:10"></circle><path d="M590.48,300.78h0Z" style="fill:none;stroke:#263238;stroke-linecap:round;stroke-linejoin:round"></path><path d="M609.57,397.79s-.11,1.45-.22,3.68A17.52,17.52,0,0,0,609.57,397.79Z" style="fill:#fff;stroke:#263238;stroke-linecap:round;stroke-linejoin:round"></path><path d="M616.85,348.68s-15.56,7.64-19.42,2.4,14.87-30.15,14.87-30.15l-.71-13.17c-5.24.74-21.11-7-21.11-7s-6.59,22-15.11,39.18-11.16,36.21,3.89,46.9a59.23,59.23,0,0,0,30.31,10.93C608.69,377.79,616.85,348.68,616.85,348.68Z" style="fill:#fff;stroke:#263238;stroke-linecap:round;stroke-linejoin:round"></path><path d="M586.85,312.87s13.1,8.91,25.45,8.06" style="fill:none;stroke:#263238;stroke-linecap:round;stroke-linejoin:round"></path><path d="M579.47,333.06s11.19,5.95,20.13,7.43" style="fill:none;stroke:#263238;stroke-linecap:round;stroke-linejoin:round"></path><path d="M570.38,353.56s11.81,14.39,41.69,15.09" style="fill:none;stroke:#263238;stroke-linecap:round;stroke-linejoin:round"></path><path d="M616.85,348.68s6.09-2.8,8.18-4.05" style="fill:none;stroke:#263238;stroke-linecap:round;stroke-linejoin:round"></path><path d="M621.37,241.18a6,6,0,0,1,5,5.58c.49,5-2.17,6.81-.91,7.51s3.94-3.7,4-8.1S624.57,236.42,621.37,241.18Z" style="fill:#263238"></path><path d="M613.29,228.25a4.09,4.09,0,0,0-2.8-3.77c-2.85-1,1.11-3.52,4.38-1.06S616.26,228.56,613.29,228.25Z" style="fill:#263238"></path><ellipse cx="586.74" cy="244.87" rx="12.31" ry="19.22" transform="translate(-34.75 378.94) rotate(-34.83)" style="fill:#fff;stroke:#263238;stroke-linecap:round;stroke-linejoin:round"></ellipse><polyline points="574.54 230.15 592.68 252.83 591.24 257.16 594.75 257.57 596.19 259.43" style="fill:none;stroke:#263238;stroke-linecap:round;stroke-linejoin:round"></polyline><path d="M613.4,241.65a1.95,1.95,0,1,1-1.57-2.27A2,2,0,0,1,613.4,241.65Z" style="fill:#263238"></path><path d="M604,229.57a1.94,1.94,0,1,1-1.56-2.26A1.93,1.93,0,0,1,604,229.57Z" style="fill:#263238"></path><line x1="583.93" y1="241.93" x2="575.14" y2="62.61" style="fill:none;stroke:#263238;stroke-linecap:round;stroke-linejoin:round"></line><path d="M554.55,55.45c1.48,16,17.12,40,28.58,38.91,9.53-.88,22.43-27.53,21-43.49S590.32,23,576.64,24.27,553.07,39.49,554.55,55.45Z" style="fill:#22C55E;stroke:#263238;stroke-linecap:round;stroke-linejoin:round"></path><polyline points="583.9 95.06 584.19 100.86 579.26 100.11 583.13 94.36" style="fill:#22C55E;stroke:#263238;stroke-linecap:round;stroke-linejoin:round"></polyline><path d="M560,37.46c-2.51,4.66-1.95,9.83,1.24,11.55s7.82-.67,10.33-5.33,1.95-9.83-1.25-11.55S562.54,32.8,560,37.46Z" style="fill:#fff"></path><path d="M572.85,30.17c.28,1,1.71,1.38,3.18.94s2.44-1.57,2.15-2.53-1.71-1.38-3.18-.95S572.56,29.2,572.85,30.17Z" style="fill:#fff"></path><path d="M591,64c-4.1,15.49,2.34,43.41,13.46,46.36,9.25,2.45,30.53-18.14,34.63-33.63s-3.34-30.9-16.62-34.42S595.14,48.52,591,64Z" style="fill:#263238;stroke:#263238;stroke-linecap:round;stroke-linejoin:round"></path><polyline points="604.98 111.3 603.26 116.85 598.89 114.44 604.5 110.38" style="fill:#263238;stroke:#263238;stroke-linecap:round;stroke-linejoin:round"></polyline><path d="M602.38,49c-4,3.51-5.21,8.56-2.8,11.27s7.57,2.07,11.53-1.45,5.21-8.56,2.8-11.27S606.34,45.49,602.38,49Z" style="fill:#fff"></path><path d="M616.92,46.56c-.07,1,1.13,1.89,2.66,2s2.83-.64,2.89-1.64-1.13-1.89-2.66-2S617,45.56,616.92,46.56Z" style="fill:#fff"></path><path d="M543.12,94.71c5.61,15,27,34.07,37.78,30,9-3.35,14.42-32.45,8.81-47.46S569.12,54,556.26,58.82,537.51,79.7,543.12,94.71Z" style="fill:#263238;stroke:#263238;stroke-linecap:round;stroke-linejoin:round"></path><polyline points="581.83 125.23 583.64 130.75 578.68 131.31 580.9 124.75" style="fill:#263238;stroke:#263238;stroke-linecap:round;stroke-linejoin:round"></polyline><path d="M543.69,75.91c-1.2,5.15.7,10,4.23,10.82s7.37-2.7,8.57-7.85-.7-10-4.23-10.82S544.89,70.75,543.69,75.91Z" style="fill:#fff"></path><path d="M554.14,65.51c.53.85,2,.89,3.32.08s1.94-2.16,1.41-3-2-.89-3.32-.08S553.61,64.66,554.14,65.51Z" style="fill:#fff"></path><path d="M524.28,143c5.48,15.05,26.71,34.3,37.52,30.37,9-3.28,14.7-32.33,9.22-47.39s-20.39-23.46-33.29-18.76S518.8,128,524.28,143Z" style="fill:#22C55E;stroke:#263238;stroke-linecap:round;stroke-linejoin:round"></path><polyline points="562.73 173.88 564.49 179.42 559.52 179.94 561.8 173.4" style="fill:#22C55E;stroke:#263238;stroke-linecap:round;stroke-linejoin:round"></polyline><path d="M525,124.23c-1.24,5.14.62,10,4.14,10.86s7.4-2.63,8.64-7.78-.62-10-4.14-10.85S526.25,119.09,525,124.23Z" style="fill:#fff"></path><path d="M535.55,113.92c.52.86,2,.91,3.32.11s2-2.14,1.44-3-2-.91-3.32-.11S535,113.07,535.55,113.92Z" style="fill:#fff"></path><polyline points="560.22 170.07 583.93 241.93 609.18 93.9" style="fill:none;stroke:#263238;stroke-linecap:round;stroke-linejoin:round"></polyline><polyline points="607.64 156.57 583.93 241.93 581.38 108.05" style="fill:none;stroke:#263238;stroke-linecap:round;stroke-linejoin:round"></polyline><path d="M589.91,116c-3,15.73,5.32,43.15,16.62,45.32,9.4,1.81,29.21-20.2,32.23-35.94s-5.46-30.59-19-33.19S592.94,100.25,589.91,116Z" style="fill:#22C55E;stroke:#263238;stroke-linecap:round;stroke-linejoin:round"></path><polyline points="607.08 162.2 605.74 167.85 601.22 165.75 606.53 161.31" style="fill:#22C55E;stroke:#263238;stroke-linecap:round;stroke-linejoin:round"></polyline><path d="M600.19,100.23c-3.71,3.78-4.61,8.9-2,11.44s7.7,1.54,11.4-2.24,4.61-8.9,2-11.44S603.89,96.45,600.19,100.23Z" style="fill:#fff"></path><path d="M614.52,96.79c0,1,1.26,1.81,2.8,1.8s2.78-.83,2.77-1.83S618.83,95,617.3,95,614.52,95.79,614.52,96.79Z" style="fill:#fff"></path></g><g id="freepik--Cat--inject-216"><polyline points="289.8 152.66 310.65 327.26 308.2 169.18" style="fill:none;stroke:#263238;stroke-linecap:round;stroke-linejoin:round"></polyline><line x1="299.77" y1="121.02" x2="310.65" y2="327.26" style="fill:none;stroke:#263238;stroke-linecap:round;stroke-linejoin:round"></line><path d="M348.89,94.23c-1.52,16-17.22,39.93-28.67,38.84-9.53-.9-22.37-27.59-20.85-43.54S313.19,61.7,326.87,63,350.4,78.27,348.89,94.23Z" style="fill:#263238;stroke:#263238;stroke-linecap:round;stroke-linejoin:round"></path><polyline points="319.45 133.77 319.14 139.57 324.07 138.82 320.22 133.07" style="fill:#263238;stroke:#263238;stroke-linecap:round;stroke-linejoin:round"></polyline><path d="M343.45,76.22c2.49,4.67,1.92,9.84-1.28,11.55s-7.82-.68-10.31-5.35-1.93-9.83,1.27-11.55S341,71.56,343.45,76.22Z" style="fill:#fff"></path><path d="M330.65,68.9c-.29,1-1.71,1.38-3.18.94s-2.44-1.57-2.15-2.53,1.71-1.39,3.19-1S330.94,67.94,330.65,68.9Z" style="fill:#fff"></path><path d="M306.41,107.34c3,15.73-5.32,43.15-16.61,45.32-9.4,1.81-29.21-20.2-32.24-35.94S263,86.13,276.51,83.53,303.39,91.6,306.41,107.34Z" style="fill:#22C55E;stroke:#263238;stroke-linecap:round;stroke-linejoin:round"></path><polyline points="289.25 153.55 290.58 159.21 295.11 157.1 289.8 152.66" style="fill:#22C55E;stroke:#263238;stroke-linecap:round;stroke-linejoin:round"></polyline><path d="M296.14,91.58c3.7,3.78,4.61,8.9,2,11.44s-7.7,1.54-11.4-2.24-4.61-8.9-2-11.44S292.43,87.8,296.14,91.58Z" style="fill:#fff"></path><path d="M281.8,88.14c0,1-1.25,1.81-2.79,1.8s-2.78-.83-2.77-1.83,1.25-1.81,2.79-1.8S281.81,87.14,281.8,88.14Z" style="fill:#fff"></path><path d="M338.42,152.85c-1.76,15.93-17.84,39.65-29.27,38.39-9.51-1.06-21.93-27.94-20.17-43.86s14.26-27.62,27.92-26.11S340.19,136.93,338.42,152.85Z" style="fill:#22C55E;stroke:#263238;stroke-linecap:round;stroke-linejoin:round"></path><polyline points="308.36 191.93 307.96 197.72 312.91 197.05 309.15 191.24" style="fill:#22C55E;stroke:#263238;stroke-linecap:round;stroke-linejoin:round"></polyline><path d="M333.26,134.77c2.43,4.7,1.78,9.86-1.45,11.52s-7.81-.81-10.23-5.51-1.77-9.86,1.46-11.53S330.84,130.06,333.26,134.77Z" style="fill:#fff"></path><path d="M320.59,127.24c-.3,1-1.74,1.36-3.2.89s-2.41-1.61-2.11-2.57,1.74-1.35,3.2-.89S320.89,126.29,320.59,127.24Z" style="fill:#fff"></path><polyline points="415.03 191.52 435.89 366.12 433.43 208.04" style="fill:none;stroke:#263238;stroke-linecap:round;stroke-linejoin:round"></polyline><line x1="425" y1="159.88" x2="435.89" y2="366.12" style="fill:none;stroke:#263238;stroke-linecap:round;stroke-linejoin:round"></line><path d="M474.12,133.09C472.61,149,456.91,173,445.46,171.93c-9.53-.91-22.37-27.59-20.86-43.54s13.83-27.84,27.5-26.54S475.64,117.13,474.12,133.09Z" style="fill:#263238;stroke:#263238;stroke-linecap:round;stroke-linejoin:round"></path><polyline points="444.68 172.63 444.38 178.43 449.31 177.68 445.46 171.93" style="fill:#263238;stroke:#263238;stroke-linecap:round;stroke-linejoin:round"></polyline><path d="M468.68,115.08c2.5,4.67,1.93,9.84-1.27,11.55s-7.82-.68-10.32-5.35-1.92-9.84,1.28-11.55S466.19,110.42,468.68,115.08Z" style="fill:#fff"></path><path d="M455.89,107.76c-.29,1-1.72,1.38-3.19.94s-2.43-1.58-2.14-2.54,1.71-1.38,3.18-.94S456.17,106.8,455.89,107.76Z" style="fill:#fff"></path><path d="M431.65,146.2c3,15.73-5.32,43.15-16.62,45.32-9.4,1.81-29.21-20.2-32.23-35.94s5.46-30.59,18.95-33.19S428.62,130.46,431.65,146.2Z" style="fill:#22C55E;stroke:#263238;stroke-linecap:round;stroke-linejoin:round"></path><polyline points="414.49 192.41 415.82 198.06 420.35 195.96 415.03 191.52" style="fill:#22C55E;stroke:#263238;stroke-linecap:round;stroke-linejoin:round"></polyline><path d="M421.37,130.44c3.71,3.78,4.61,8.9,2,11.44s-7.69,1.54-11.4-2.24-4.61-8.9-2-11.44S417.67,126.66,421.37,130.44Z" style="fill:#fff"></path><path d="M407,127c0,1-1.26,1.81-2.79,1.8s-2.78-.83-2.78-1.83,1.26-1.81,2.8-1.8S407.05,126,407,127Z" style="fill:#fff"></path><path d="M463.66,191.71c-1.77,15.93-17.84,39.65-29.28,38.39-9.51-1.06-21.93-27.94-20.16-43.86s14.26-27.62,27.91-26.11S465.42,175.78,463.66,191.71Z" style="fill:#22C55E;stroke:#263238;stroke-linecap:round;stroke-linejoin:round"></path><polyline points="433.6 230.78 433.2 236.58 438.14 235.91 434.38 230.1" style="fill:#22C55E;stroke:#263238;stroke-linecap:round;stroke-linejoin:round"></polyline><path d="M458.5,173.62c2.42,4.71,1.77,9.87-1.45,11.53s-7.81-.81-10.23-5.51-1.77-9.87,1.45-11.53S456.08,168.92,458.5,173.62Z" style="fill:#fff"></path><path d="M445.82,166.1c-.3,1-1.73,1.35-3.2.89s-2.4-1.61-2.1-2.57,1.73-1.35,3.2-.89S446.13,165.14,445.82,166.1Z" style="fill:#fff"></path><path d="M407.53,287.24s2.21-22.71,20.7-31.36,37.59,7.84,39.8,18.9-5.83,20.3-14.07,20.5-13.47-19.7-22.71-22.91-16.69,13.06-17.89,18.29S407.53,287.24,407.53,287.24Z" style="fill:#22C55E;stroke:#263238;stroke-linecap:round;stroke-linejoin:round"></path><path d="M468,274.78a21,21,0,0,0-4.13-8.29c-13.63-1.89-20.9,8.94-23.67,14.46,4.55,6.63,8.54,14.46,13.73,14.33C462.2,295.08,470.24,285.83,468,274.78Z" style="fill:#fff;stroke:#263238;stroke-linecap:round;stroke-linejoin:round"></path><path d="M332.5,281.25l-2.76,11.82S316.55,276,305.45,293c-2.9,4.44,12.64,11.78,12.64,11.78H423.81a62.06,62.06,0,0,0-12.06-15.88c-8.44-8.24-25.53-19.7-25.53-19.7S345.36,282.25,332.5,281.25Z" style="fill:#22C55E;stroke:#263238;stroke-linecap:round;stroke-linejoin:round"></path><path d="M383,304.73c-6.23-6.92-22.53-18.13-28.7-16.44-7.53,2-8.56,10.95-8.56,10.95a44,44,0,0,0-7.87-2.4c-4.79-1-5.82,6.16-5.82,6.16l-1.41,1.73Z" style="fill:#fff"></path><path d="M425.47,304.49l21.86-1.91s1.4,48.17,5.32,72,5.73,30.14,5.42,31.95-30.74,13-30.74,13S421.25,334.93,425.47,304.49Z" style="fill:#a1a1a1;stroke:#263238;stroke-linecap:round;stroke-linejoin:round"></path><path d="M290.48,303.42l135,1.07s2.46,91.77,2.16,102.32-.3,12.66-.3,12.66L287.77,409.23S292,321.81,290.48,303.42Z" style="fill:#c9c9c9;stroke:#263238;stroke-linecap:round;stroke-linejoin:round"></path><path d="M345.36,359.61c12.54-12.76,32.14-32.35,37.8-36" style="fill:none;stroke:#263238;stroke-linecap:round;stroke-linejoin:round"></path><path d="M334.46,370.79s2.19-2.27,5.67-5.84" style="fill:none;stroke:#263238;stroke-linecap:round;stroke-linejoin:round"></path><path d="M314.37,372.3s24.1-21.09,29.12-27.11" style="fill:none;stroke:#263238;stroke-linecap:round;stroke-linejoin:round"></path><path d="M397.08,291.66S385.82,285,380,285.83s-14.87,13.27-14.87,19.9,2.41,9.85,9,9,12.26-10.46,12.26-10.46h8.65" style="fill:#22C55E;stroke:#263238;stroke-linecap:round;stroke-linejoin:round"></path><path d="M380,285.83c-5.83.81-14.87,13.27-14.87,19.9s2.41,9.85,9,9,12.26-10.46,12.26-10.46h1.88a31,31,0,0,0,2.35-7.43,16.24,16.24,0,0,0-1.13-8.95C386.25,286.59,382.59,285.48,380,285.83Z" style="fill:#fff;stroke:#263238;stroke-linecap:round;stroke-linejoin:round"></path><path d="M386.42,304.32a10.19,10.19,0,0,0,1.41-8.24" style="fill:#fff;stroke:#263238;stroke-linecap:round;stroke-linejoin:round"></path><path d="M313.6,285.83c-5.39,2.37-14.88,13.27-14.88,19.9s2.41,9.85,9,9,12.34-11.22,12.34-11.22H322a19.17,19.17,0,0,0,2.27-6.67,16.24,16.24,0,0,0-1.12-8.95A8.21,8.21,0,0,0,313.6,285.83Z" style="fill:#fff;stroke:#263238;stroke-linecap:round;stroke-linejoin:round"></path><path d="M320.11,303.56a32.65,32.65,0,0,0,1.56-5.57" style="fill:#fff;stroke:#263238;stroke-linecap:round;stroke-linejoin:round"></path><ellipse cx="347.46" cy="250.18" rx="47.87" ry="42.42" style="fill:#22C55E;stroke:#263238;stroke-linecap:round;stroke-linejoin:round"></ellipse><ellipse cx="341.62" cy="262.93" rx="13.6" ry="13.42" style="fill:#fff"></ellipse><path d="M338.3,241c.06,2.61-1.43,4.77-3.34,4.82s-3.51-2-3.57-4.65,1.43-4.77,3.33-4.81S338.23,238.4,338.3,241Z" style="fill:#263238"></path><circle cx="335.81" cy="239.33" r="1.45" style="fill:#fff"></circle><path d="M333.1,211.72s-19-22.81-24.78-19.11,1.56,29.87,1.56,29.87" style="fill:#22C55E;stroke:#263238;stroke-linecap:round;stroke-linejoin:round"></path><path d="M375.69,221.21s21.34-12.2,27-7.36-5.39,26.57-10.72,31.62" style="fill:#22C55E;stroke:#263238;stroke-linecap:round;stroke-linejoin:round"></path><path d="M329.23,213.71S313.57,197,309.85,196.35s1,27.91,3.29,29S327.36,223.11,329.23,213.71Z" style="fill:#fff;stroke:#263238;stroke-linecap:round;stroke-linejoin:round"></path><path d="M376.66,224.73s19.9-11.4,23.63-10.88-9.19,26.36-11.66,26.71S375.68,234.27,376.66,224.73Z" style="fill:#fff;stroke:#263238;stroke-linecap:round;stroke-linejoin:round"></path><path d="M362.63,248.4c-1.17,2.34-3.5,3.54-5.21,2.69s-2.15-3.44-1-5.78,3.5-3.54,5.21-2.69S363.8,246.07,362.63,248.4Z" style="fill:#263238"></path><circle cx="361.39" cy="246.15" r="1.45" style="fill:#fff"></circle><line x1="326.91" y1="252.35" x2="316.98" y2="248.24" style="fill:none;stroke:#fff;stroke-linecap:round;stroke-linejoin:round"></line><line x1="326.57" y1="255.43" x2="315.96" y2="254.06" style="fill:none;stroke:#fff;stroke-linecap:round;stroke-linejoin:round"></line><line x1="326.57" y1="259.2" x2="317.32" y2="261.59" style="fill:none;stroke:#fff;stroke-linecap:round;stroke-linejoin:round"></line><line x1="358.74" y1="256.12" x2="369.35" y2="256.46" style="fill:none;stroke:#fff;stroke-linecap:round;stroke-linejoin:round"></line><line x1="358.39" y1="259.54" x2="368.66" y2="264.33" style="fill:none;stroke:#fff;stroke-linecap:round;stroke-linejoin:round"></line><line x1="358.05" y1="263.3" x2="364.9" y2="269.12" style="fill:none;stroke:#fff;stroke-linecap:round;stroke-linejoin:round"></line><path d="M348.39,254.16s-7.83-2.71-9.94-2.11,1.21,5.12,3.62,6S351.1,255.36,348.39,254.16Z" style="fill:#263238"></path><path d="M333,255.67s-.91,3,2.4,5.41,6.63-3,6.63-3,.3,4.82,3,5.42,7.22,0,8.42-4.81" style="fill:none;stroke:#263238;stroke-linecap:round;stroke-linejoin:round"></path><path d="M337.48,261.61s.35,4.06,2.37,5c2.92,1.34,5.23-3.1,5.23-3.1s-2.79-1.07-3-5.42C342.07,258.07,339.69,261.3,337.48,261.61Z" style="fill:#263238;stroke:#263238;stroke-linecap:round;stroke-linejoin:round"></path><path d="M338,264.05a4.09,4.09,0,0,0,1.84,2.54c1.51.7,2.85-.16,3.8-1.14A6.67,6.67,0,0,0,338,264.05Z" style="fill:#22C55E;stroke:#263238;stroke-linecap:round;stroke-linejoin:round"></path><path d="M347.46,207.76a54,54,0,0,0-7.91.58c.21,3.11,1,12.32,2.69,11.75s5.22-8.6,6.81-12.3Z" style="fill:#263238"></path><path d="M368.68,212.16c-1.87,3.34-6.38,11.65-4.73,11.37,1.37-.23,7.58-4.69,11.62-7.68A49.87,49.87,0,0,0,368.68,212.16Z" style="fill:#263238"></path><path d="M353.27,218.71c2.1-.26,6.79-6.12,8.91-8.9a53.65,53.65,0,0,0-7.15-1.52C353.73,211.65,351.14,219,353.27,218.71Z" style="fill:#263238"></path><path d="M390.58,268.6c-3.27-3.49-9.49-9.79-9.74-7.51-.35,3.1,4.82,14.48,4.82,14.48S375.32,269,376,272.46c.56,2.81,3.18,6.54,4.51,8.38A43.3,43.3,0,0,0,390.58,268.6Z" style="fill:#263238"></path><path d="M310.08,240.74c1.12-2.31-5.91-.11-9.58,1.17a38,38,0,0,0-.87,6.86C303.86,246.14,309.19,242.57,310.08,240.74Z" style="fill:#263238"></path><path d="M299.61,250.9a38.51,38.51,0,0,0,.83,7.24c2.42-1.84,6.62-5.26,6.62-6.92C307.06,249.93,303.12,250.31,299.61,250.9Z" style="fill:#263238"></path><path d="M392.21,284.87c2.57.26,7.24-2.93,9.45-4.57-3-2.31-6-4.51-8.52-6.33C392,276.93,389.43,284.59,392.21,284.87Z" style="fill:#263238"></path><path d="M409.09,295.21c2.21,1.32,6.12.81,8.64.27a69.54,69.54,0,0,0-6-6.63c-.64-.63-1.33-1.27-2.06-1.93C408.4,289.51,406.75,293.8,409.09,295.21Z" style="fill:#263238"></path><path d="M428.23,255.88a31.76,31.76,0,0,0-4.75,2.76c.46,3,1.55,8.37,3.53,7.62,2.14-.8,3.66-8.27,4.23-11.55A26.66,26.66,0,0,0,428.23,255.88Z" style="fill:#263238"></path><path d="M447.44,254.85c-2.46,2-7.6,6.45-7.33,9.34.28,3.14,9.06-3.16,16-5A32.93,32.93,0,0,0,447.44,254.85Z" style="fill:#263238"></path><path d="M416.33,274.88c.23-1.81-1-4.81-1.92-6.65a42.76,42.76,0,0,0-2.88,5.25C412.66,274.46,416,277.17,416.33,274.88Z" style="fill:#263238"></path></g><g id="freepik--Fox--inject-216"><path d="M141.12,49.61c-1.48,16-17.12,40-28.58,38.91C103,87.64,90.11,61,91.59,45S105.35,17.16,119,18.43,142.59,33.66,141.12,49.61Z" style="fill:#22C55E;stroke:#263238;stroke-linecap:round;stroke-linejoin:round"></path><polyline points="111.77 89.22 111.48 95.03 116.41 94.27 112.54 88.52" style="fill:#22C55E;stroke:#263238;stroke-linecap:round;stroke-linejoin:round"></polyline><path d="M135.63,31.62c2.51,4.66,2,9.83-1.24,11.55s-7.82-.66-10.33-5.32-2-9.83,1.25-11.55S133.13,27,135.63,31.62Z" style="fill:#fff"></path><path d="M122.82,24.33c-.28,1-1.71,1.38-3.18,1s-2.44-1.57-2.15-2.53,1.71-1.39,3.18-.95S123.11,23.37,122.82,24.33Z" style="fill:#fff"></path><path d="M152.55,88.87c-5.61,15-27,34.07-37.78,30.05-9-3.35-14.42-32.46-8.81-47.47S126.55,48.17,139.41,53,158.16,73.86,152.55,88.87Z" style="fill:#263238;stroke:#263238;stroke-linecap:round;stroke-linejoin:round"></path><polyline points="113.84 119.39 112.03 124.92 116.99 125.48 114.77 118.92" style="fill:#263238;stroke:#263238;stroke-linecap:round;stroke-linejoin:round"></polyline><path d="M152,70.07c1.2,5.15-.7,10-4.23,10.82s-7.37-2.69-8.57-7.85.7-10,4.23-10.82S150.78,64.92,152,70.07Z" style="fill:#fff"></path><path d="M141.53,59.67c-.53.85-2,.89-3.32.08s-1.94-2.15-1.41-3,2-.88,3.32-.08S142.06,58.82,141.53,59.67Z" style="fill:#fff"></path><path d="M171.39,137.19c-5.48,15.06-26.71,34.31-37.52,30.37-9-3.27-14.7-32.33-9.22-47.39S145,96.72,157.94,101.41,176.87,122.13,171.39,137.19Z" style="fill:#22C55E;stroke:#263238;stroke-linecap:round;stroke-linejoin:round"></path><polyline points="132.94 168.04 131.18 173.58 136.15 174.1 133.87 167.56" style="fill:#22C55E;stroke:#263238;stroke-linecap:round;stroke-linejoin:round"></polyline><path d="M170.66,118.39c1.24,5.15-.62,10-4.14,10.86s-7.4-2.63-8.64-7.77.62-10,4.14-10.86S169.42,113.25,170.66,118.39Z" style="fill:#fff"></path><path d="M160.12,108.08c-.52.86-2,.91-3.32.11s-2-2.13-1.44-3,2-.91,3.32-.11S160.64,107.23,160.12,108.08Z" style="fill:#fff"></path><line x1="111.19" y1="224.58" x2="88.68" y2="81.82" style="fill:none;stroke:#263238;stroke-linecap:round;stroke-linejoin:round"></line><polyline points="88.03 150.73 111.74 236.09 114.29 102.22" style="fill:none;stroke:#263238;stroke-linecap:round;stroke-linejoin:round"></polyline><polyline points="135.45 164.23 111.74 236.09 110.64 59.86" style="fill:none;stroke:#263238;stroke-linecap:round;stroke-linejoin:round"></polyline><path d="M104.63,58.18c4.1,15.49-2.34,43.42-13.46,46.36C81.92,107,60.64,86.4,56.54,70.91S59.88,40,73.16,36.49,100.53,42.69,104.63,58.18Z" style="fill:#263238;stroke:#263238;stroke-linecap:round;stroke-linejoin:round"></path><polyline points="90.69 105.46 92.41 111.02 96.78 108.61 91.17 104.54" style="fill:#263238;stroke:#263238;stroke-linecap:round;stroke-linejoin:round"></polyline><path d="M93.29,43.17c4,3.51,5.21,8.56,2.8,11.27S88.52,56.51,84.56,53s-5.21-8.56-2.8-11.27S89.33,39.66,93.29,43.17Z" style="fill:#fff"></path><path d="M78.75,40.73c.07,1-1.13,1.89-2.66,2s-2.83-.63-2.89-1.64,1.13-1.88,2.66-2S78.69,39.73,78.75,40.73Z" style="fill:#fff"></path><path d="M105.76,110.15c3,15.74-5.32,43.15-16.62,45.32-9.4,1.81-29.21-20.2-32.23-35.93s5.46-30.6,19-33.19S102.73,94.41,105.76,110.15Z" style="fill:#22C55E;stroke:#263238;stroke-linecap:round;stroke-linejoin:round"></path><polyline points="88.59 156.36 89.93 162.02 94.45 159.92 89.14 155.47" style="fill:#22C55E;stroke:#263238;stroke-linecap:round;stroke-linejoin:round"></polyline><path d="M95.48,94.39c3.71,3.78,4.61,8.9,2,11.45s-7.7,1.53-11.4-2.25-4.61-8.9-2-11.44S91.77,90.62,95.48,94.39Z" style="fill:#fff"></path><path d="M81.15,91c0,1-1.26,1.81-2.8,1.8s-2.78-.83-2.77-1.83,1.26-1.81,2.79-1.8S81.15,90,81.15,91Z" style="fill:#fff"></path><path d="M120.28,336.41s-38-2.29-53.12,32.27S69.44,426.09,86,434.37s53.41,15.71,53.69,24.85S128,470.35,128,470.35s10.28,6,28.28-5.71S172,427.23,158,411.23s-43.13-44-36.56-60.54S120.28,336.41,120.28,336.41Z" style="fill:#22C55E;stroke:#263238;stroke-linecap:round;stroke-linejoin:round"></path><path d="M121.42,350.69c6.57-16.57-1.14-14.28-1.14-14.28A59.52,59.52,0,0,0,105,338c3.4,1.36,7.5,4.79,10.52,13.05,6.19,16.91,7.42,19,7.42,19l.51-2.72C120.62,361.2,119.53,355.47,121.42,350.69Z" style="fill:#263238;stroke:#263238;stroke-linecap:round;stroke-linejoin:round"></path><path d="M125.71,439.79s-4-5.71-4.57-9.71,15.7,8.29,13.13,4.57-11.42-18.56-5.14-20.27,20.57,11.71,20.57,11.71-3.72-10.29-2.29-12.57,12,12.57,12,12.57-2-6.86-3.14-11.43c-.63-2.5,2.67-.38,5.8,2,10.15,15.9,10.25,37.49-5.8,47.94-18,11.71-28.28,5.71-28.28,5.71s12-2,11.71-11.13c-.13-4-7.37-7.73-16.84-11.32,0,0,0-.08,0-.11-.57-.86-6.28-5.14-8.85-8.85S125.71,439.79,125.71,439.79Z" style="fill:#fff;stroke:#263238;stroke-linecap:round;stroke-linejoin:round"></path><path d="M178.58,280.56s1.38,9.35,14.58,23.65,19.8,20.62,16.22,22.27-28.87-7.15-28.87-7.15-3.3,28.88-3.3,43.45-1.65,21.73-6.88,21.73-8.52-10.73-8.52-10.73L156,360l-18.15-2.2s-8,17.88-11,21.45-6.6,6.88-8.52,1.1-3.3-27.77-3.3-50.32a315.55,315.55,0,0,1,3.3-43.45s-10.45-30.25-10.73-40.43,2.2-15.67,5.5-14.57,12.38,16.77,16.78,22.55,16.22,19.25,22.82,22.27S178.58,280.56,178.58,280.56Z" style="fill:#22C55E;stroke:#263238;stroke-linecap:round;stroke-linejoin:round"></path><path d="M166.21,283.86s1.65,3,6.32,22.82-2.75,38.5-19,43.73-25.3-13.2-22.83-33,18.7-34.38,22-37.68S160.71,272.31,166.21,283.86Z" style="fill:#fff;stroke:#263238;stroke-linecap:round;stroke-linejoin:round"></path><path d="M126.88,379.28c-3,3.58-6.6,6.88-8.52,1.1a59.12,59.12,0,0,1-1.73-10.82,46.91,46.91,0,0,1,13.28,4.81A33.16,33.16,0,0,1,126.88,379.28Z" style="fill:#fff;stroke:#263238;stroke-linecap:round;stroke-linejoin:round"></path><path d="M107.78,248.1q-.12-1-.15-1.92c-.27-10.17,2.2-15.67,5.5-14.57,1.52.5,4.27,4.11,7.22,8.41C117.14,244.75,111.57,247,107.78,248.1Z" style="fill:#fff;stroke:#263238;stroke-linecap:round;stroke-linejoin:round"></path><path d="M170.33,384.51c-5.22,0-8.52-10.73-8.52-10.73l-.18-.41a20,20,0,0,1,15.28-1.58C176.23,380.3,174.33,384.51,170.33,384.51Z" style="fill:#fff;stroke:#263238;stroke-linecap:round;stroke-linejoin:round"></path><path d="M209.38,326.48c-1.61.75-7.66-.64-13.81-2.39a26,26,0,0,1,6.1-10.7C209,321.34,212.07,325.24,209.38,326.48Z" style="fill:#fff;stroke:#263238;stroke-linecap:round;stroke-linejoin:round"></path><line x1="180.51" y1="319.33" x2="181.61" y2="302.01" style="fill:none;stroke:#263238;stroke-linecap:round;stroke-linejoin:round"></line><path d="M142.23,309a21.5,21.5,0,0,1-1.47-9.28l-3.18,2.68s-2.68-1-2-6.59,6.6-8.06,6.6-8.06-3.42.48-3.18-1.47,7.57-6.35,7.57-6.35,15.15-3.42,20.53.49,7.32,12.46,6.84,13.43-3.42-.24-3.42-.24,5.13,6.35,3.18,11.61c-.8,2.18-3.92.6-3.92.6a23.08,23.08,0,0,1-3.91,4.89" style="fill:#fff;stroke:#263238;stroke-linecap:round;stroke-linejoin:round"></path><path d="M187.7,219c-10.62-6.46-24.55-9.21-36.63-4.81-15.37,5.6-17.46,16.08-27.48,27.21-3.86,4.3-10.3,4.73-10.3,4.73s3.44,8.58,6,9.87l2.58,1.29L115,259.4a139.38,139.38,0,0,1,16.74,12.45c7.73,6.87,24.47,13.74,39.5,14.6s23.18-3,26.18-4.29,6.44-5.16,6.44-5.16l-3-.85,12-4.3s-6-2.57-7.73-13.73C202.64,241.74,204.12,229,187.7,219Z" style="fill:#22C55E"></path><path d="M119.3,256l2.58,1.29L115,259.4a139.38,139.38,0,0,1,16.74,12.45c7.73,6.87,24.47,13.74,39.5,14.6s23.18-3,26.18-4.29,6.44-5.16,6.44-5.16l-3-.85L212.44,272c-10.81-2.62-21.07-14-27-18.19-7.3-5.15-18.46-1.28-18.46-1.28s-3.86-7.73-11.59-8.16-11.59,3-23.61,4.72-18.46-3-18.46-3S116.73,254.68,119.3,256Z" style="fill:#fff"></path><path d="M200.87,252.11c9.87,0,19.31-13.31,24-22.76s9-23.18,5.58-23.61-9.88,6.44-22.76,8.59-20.17,7.73-20.17,7.73" style="fill:#22C55E"></path><path d="M164.75,215.64s-3.23-8.6-13-17.24-11.6-17.88-14.74-19.34-6,13.17-7,23.68-2.36,27,6,32.19" style="fill:#22C55E"></path><path d="M175,254.5s-2.82-4.94-8.11-6-8.12.35-8.12,1.77,3.18,5.29,6.7,6.7S175,254.5,175,254.5Z" style="fill:#263238;stroke:#263238;stroke-linecap:round;stroke-linejoin:round"></path><path d="M152.41,255.21s.71,9.17,11.64,4.23a7.05,7.05,0,0,0,6.71,4.94c5.29,0,6-3.53,6-3.53" style="fill:none;stroke:#263238;stroke-linecap:round;stroke-linejoin:round"></path><path d="M148.18,234s8.11-3.18,12.35,4.23" style="fill:none;stroke:#263238;stroke-linecap:round;stroke-linejoin:round;stroke-width:2px"></path><path d="M178.52,243.56s8.11-3.17,12.35,4.24" style="fill:none;stroke:#263238;stroke-linecap:round;stroke-linejoin:round;stroke-width:2px"></path><path d="M158.28,261s-.58,7.31,3.3,7.66,6.35-4.58,6.35-4.58a9.64,9.64,0,0,1-3.88-4.59S159.83,261.56,158.28,261Z" style="fill:#263238;stroke:#263238;stroke-linecap:round;stroke-linejoin:round"></path><path d="M166.47,266.16a10.5,10.5,0,0,0-8.17-2.93c.16,2.18.84,5.16,3.28,5.38C163.68,268.8,165.36,267.45,166.47,266.16Z" style="fill:#22C55E;stroke:#263238;stroke-linecap:round;stroke-linejoin:round"></path><path d="M230.49,205.74c-3.44-.43-9.88,6.44-22.76,8.59-1.28.21-2.5.47-3.68.75,6.28,5.13,11.52,11,14.42,17.28a19.77,19.77,0,0,0,2.41,4,75.18,75.18,0,0,0,4-7C229.63,219.91,233.92,206.17,230.49,205.74Z" style="fill:#263238"></path><path d="M230.49,205.74s-9.45,15-15.46,20.18-14.59,7.73-14.59,7.73,7.29.43,4.72,3.43l-2.58,3s-4.35,8.72,2.25,11.32c8.37-2.83,16-13.89,20.08-22.06C229.63,219.91,233.92,206.17,230.49,205.74Z" style="fill:#fff;stroke:#263238;stroke-linecap:round;stroke-linejoin:round"></path><path d="M148.72,195.46c-7.19-7.69-8.95-15.11-11.73-16.4s-5.43,10.61-6.63,20.68A152.44,152.44,0,0,1,148.72,195.46Z" style="fill:#263238"></path><path d="M144.2,221.63a24.17,24.17,0,0,1-6.87-8.16c-2.14-4.72,6.87.86,6.87.86s-3-3.44-6.44-11.59-.77-23.68-.77-23.68c-3.14-1.46-6,13.17-7,23.68-.77,8.09-1.75,19.7,1.66,27C139.12,228.6,144.2,221.63,144.2,221.63Z" style="fill:#fff;stroke:#263238;stroke-linecap:round;stroke-linejoin:round"></path><path d="M230.49,205.74c-3.44-.43-9.88,6.44-22.76,8.59A53,53,0,0,0,190,220.49c-.73-.52-1.49-1-2.31-1.52A46.94,46.94,0,0,0,163,212a53.85,53.85,0,0,0-11.23-13.63c-9.78-8.65-11.6-17.88-14.74-19.34s-6,13.17-7,23.68c-.79,8.3-1.8,20.31,1.94,27.57a104.8,104.8,0,0,1-8.38,11.06c-3.86,4.3-10.3,4.73-10.3,4.73s3.44,8.58,6,9.87l2.58,1.29L115,259.4a139.38,139.38,0,0,1,16.74,12.45c7.73,6.87,24.47,13.74,39.5,14.6s23.18-3,26.18-4.29,6.44-5.16,6.44-5.16l-3-.85,12-4.3s-6-2.57-7.73-13.73c-.35-2.25-.62-4.42-.87-6.54,8.59-2.53,16.44-13.88,20.62-22.23C229.63,219.91,233.92,206.17,230.49,205.74Z" style="fill:none;stroke:#263238;stroke-linecap:round;stroke-linejoin:round"></path></g></svg>
