<svg xmlns="http://www.w3.org/2000/svg" viewBox="0 0 500 500"><g id="freepik--background-simple--inject-496"><path d="M485.17,225.56c-.56-39-15.88-76.6-39.2-105.65a204.35,204.35,0,0,0-48-43.47c-18.6-12-38.83-25.5-61.27-27.57A44.11,44.11,0,0,0,320,50.23c-20.93,6.24,20.49,28.48,25.9,31.74C288,57.2,228.1,32.05,164.81,34.42c-12.2.46-24.86,2.1-35.59,8.87s-19,19.84-17.43,32.78c1.32,10.71,8.55,22.66,1.77,31-1.94,2.39-4.69,3.8-7.38,5-13.85,6.3-28.79,9.6-41.91,17.62C44,142.16,30.1,165,23.68,189s-6.12,49.2-3.6,73.61c4.75,45.93,17.65,91.5,43.77,127.22,37.3,51,98.46,77,159.72,81.29,74.13,5.19,154.49-22,203.51-84.79C434.35,377,441,366.65,443.66,355s.55-25-7.59-32.68c-2.19-2.07-5-4.26-4.78-7.47.32-4.34,5.54-5.81,9.52-6.72,26.09-6,41-37.64,43.7-66.1A150.93,150.93,0,0,0,485.17,225.56Z" style="fill:#22C55E"></path><path d="M485.17,225.56c-.56-39-15.88-76.6-39.2-105.65a204.35,204.35,0,0,0-48-43.47c-18.6-12-38.83-25.5-61.27-27.57A44.11,44.11,0,0,0,320,50.23c-20.93,6.24,20.49,28.48,25.9,31.74C288,57.2,228.1,32.05,164.81,34.42c-12.2.46-24.86,2.1-35.59,8.87s-19,19.84-17.43,32.78c1.32,10.71,8.55,22.66,1.77,31-1.94,2.39-4.69,3.8-7.38,5-13.85,6.3-28.79,9.6-41.91,17.62C44,142.16,30.1,165,23.68,189s-6.12,49.2-3.6,73.61c4.75,45.93,17.65,91.5,43.77,127.22,37.3,51,98.46,77,159.72,81.29,74.13,5.19,154.49-22,203.51-84.79C434.35,377,441,366.65,443.66,355s.55-25-7.59-32.68c-2.19-2.07-5-4.26-4.78-7.47.32-4.34,5.54-5.81,9.52-6.72,26.09-6,41-37.64,43.7-66.1A150.93,150.93,0,0,0,485.17,225.56Z" style="fill:#fff;opacity:0.7000000000000001"></path></g><g id="freepik--Clouds--inject-496"><path d="M397.11,80.6s-22.62-42.9-55.38-53-52.26.78-60.06,11.7a56.1,56.1,0,0,0-9.36,22.62s-42.12-12.48-54.6-.78S209.13,90,209.13,90s-30.42-6.24-37.44,4.68-7,16.39-7,16.39-25.74-.78-29.64,3.9a54.56,54.56,0,0,0-6.24,9.36l-23.4,5.46h378.3L458,120.39s-9.36-37.45-23.4-49.15S408,62.66,397.11,80.6Z" style="fill:none;stroke:#263238;stroke-linecap:round;stroke-linejoin:round"></path><path d="M397.11,80.6s-4.68,9.36,0,25.75c0,0-14-10.15-25.74-6.25s-10.92,14.05-10.92,14.05" style="fill:none;stroke:#263238;stroke-linecap:round;stroke-linejoin:round"></path><path d="M272.31,61.88,271.53,79s-15.6-10.14-25-2.34-6.24,21.06-6.24,21.06-9.36,0-11.7,3.13L226.29,104" style="fill:none;stroke:#263238;stroke-linecap:round;stroke-linejoin:round"></path><path d="M143.55,187.82s-10-19-24.48-23.44-23.1.34-26.55,5.17a24.81,24.81,0,0,0-4.14,10S69.77,174,64.25,179.2,60.46,192,60.46,192,47,189.2,43.91,194s-3.11,7.24-3.11,7.24-11.37-.35-13.1,1.72A24.06,24.06,0,0,0,25,207.13L14.6,209.54H181.82l-11.38-4.13s-4.14-16.55-10.34-21.73S148.37,179.89,143.55,187.82Z" style="fill:none;stroke:#263238;stroke-linecap:round;stroke-linejoin:round"></path><path d="M143.55,187.82s-2.07,4.14,0,11.38c0,0-6.21-4.48-11.38-2.76s-4.83,6.21-4.83,6.21" style="fill:none;stroke:#263238;stroke-linecap:round;stroke-linejoin:round"></path><path d="M88.38,179.55,88,187.13s-6.9-4.48-11-1-2.76,9.31-2.76,9.31-4.14,0-5.17,1.38l-1,1.38" style="fill:none;stroke:#263238;stroke-linecap:round;stroke-linejoin:round"></path></g><g id="freepik--Trees--inject-496"><path d="M464.32,252.79c0,48.67-28.79,88.13-64.31,88.13s-64.31-39.46-64.31-88.13,28.79-216,64.31-216S464.32,204.12,464.32,252.79Z" style="fill:#22C55E"></path><path d="M464.32,252.79c0,48.67-28.79,88.13-64.31,88.13s-64.31-39.46-64.31-88.13,28.79-216,64.31-216S464.32,204.12,464.32,252.79Z" style="fill:#fff;opacity:0.5"></path><polygon points="365.27 257.17 385.78 264.32 395.95 278.13 394.17 320.42 382.35 312.4 393.8 329.18 392.09 452.87 405.04 453.54 402.01 297.03 436.07 278.25 416.6 285.46 420.51 273.74 411.2 287.45 401.9 290.89 401.24 252.4 435.07 207.45 416.94 225.58 420 212.98 411.33 231.19 401.05 241.47 400.01 181.33 396.33 269.04 364.27 235.07 381.88 259.01 365.27 257.17" style="fill:#b2b2b2"></polygon><path d="M435.39,181.52s.6,5.91-2.63,10.25-9.06,5.46-9.06,5.46-.6-5.91,2.63-10.25S435.39,181.52,435.39,181.52Z" style="fill:#fff"></path><path d="M454.78,208.76s.59,5.9-2.64,10.24-9.06,5.46-9.06,5.46-.59-5.9,2.64-10.24S454.78,208.76,454.78,208.76Z" style="fill:#fff"></path><path d="M454.77,261.78s-1.43,5.76-5.93,8.76-10.37,2.09-10.37,2.09,1.43-5.76,5.93-8.76S454.77,261.78,454.77,261.78Z" style="fill:#fff"></path><path d="M348.32,261.78s1.42,5.76,5.93,8.76,10.37,2.09,10.37,2.09-1.43-5.76-5.93-8.76S348.32,261.78,348.32,261.78Z" style="fill:#fff"></path><path d="M432.38,239.77s.6,5.91-2.63,10.25-9.07,5.46-9.07,5.46-.59-5.91,2.64-10.25S432.38,239.77,432.38,239.77Z" style="fill:#fff"></path><path d="M427.36,151.9s.59,5.9-2.64,10.24-9.06,5.46-9.06,5.46-.59-5.9,2.64-10.24S427.36,151.9,427.36,151.9Z" style="fill:#fff"></path><path d="M415.81,174.49s.59,5.91-2.63,10.25-9.07,5.46-9.07,5.46-.59-5.91,2.64-10.25S415.81,174.49,415.81,174.49Z" style="fill:#fff"></path><path d="M443.23,158s.59,5.91-2.64,10.25-9.06,5.46-9.06,5.46-.59-5.91,2.64-10.25S443.23,158,443.23,158Z" style="fill:#fff"></path><path d="M354.13,158s-.59,5.91,2.64,10.25,9.06,5.46,9.06,5.46.59-5.91-2.64-10.25S354.13,158,354.13,158Z" style="fill:#fff"></path><path d="M429.87,124.28s.59,5.91-2.64,10.24-9.06,5.47-9.06,5.47-.59-5.91,2.64-10.25S429.87,124.28,429.87,124.28Z" style="fill:#fff"></path><path d="M424.19,94.94s2.06,5.57,0,10.58-7.4,7.56-7.4,7.56-2.06-5.57,0-10.58S424.19,94.94,424.19,94.94Z" style="fill:#fff"></path><path d="M383.53,87.28s5.26,2.75,7.1,7.83-.43,10.58-.43,10.58-5.26-2.76-7.1-7.84S383.53,87.28,383.53,87.28Z" style="fill:#fff"></path><path d="M402.49,122.36s3.75,4.6,3.44,10-4.56,9.55-4.56,9.55-3.75-4.61-3.44-10S402.49,122.36,402.49,122.36Z" style="fill:#fff"></path><path d="M401.49,70.13s3.74,4.61,3.43,10-4.56,9.55-4.56,9.55-3.75-4.61-3.44-10S401.49,70.13,401.49,70.13Z" style="fill:#fff"></path><path d="M358.92,181.52s-.59,5.91,2.64,10.25,9.06,5.46,9.06,5.46.59-5.91-2.64-10.25S358.92,181.52,358.92,181.52Z" style="fill:#fff"></path><path d="M347.88,213.66s-.6,5.91,2.63,10.24,9.06,5.47,9.06,5.47.6-5.91-2.63-10.25S347.88,213.66,347.88,213.66Z" style="fill:#fff"></path><path d="M377.2,225.33s-.6,5.91,2.63,10.24,9.06,5.46,9.06,5.46.6-5.9-2.63-10.24S377.2,225.33,377.2,225.33Z" style="fill:#fff"></path><path d="M385.22,180.8s-2.27,5.49-.41,10.57,7.11,7.83,7.11,7.83,2.27-5.49.41-10.58S385.22,180.8,385.22,180.8Z" style="fill:#fff"></path><path d="M364.45,299.29s5.94.11,10-3.47,4.7-9.48,4.7-9.48-5.94-.1-10,3.47S364.45,299.29,364.45,299.29Z" style="fill:#fff"></path><path d="M421.43,292.79s1.61,5.72,6.2,8.57,10.44,1.76,10.44,1.76-1.62-5.72-6.21-8.57S421.43,292.79,421.43,292.79Z" style="fill:#fff"></path><path d="M371.08,151.9s-.6,5.9,2.63,10.24,9.06,5.46,9.06,5.46.6-5.9-2.63-10.24S371.08,151.9,371.08,151.9Z" style="fill:#fff"></path><path d="M371,125.78s-.59,5.91,2.64,10.25,9.06,5.46,9.06,5.46.59-5.91-2.64-10.24S371,125.78,371,125.78Z" style="fill:#fff"></path><path d="M302,289.19c0,39.85-23.57,72.15-52.65,72.15s-52.65-32.3-52.65-72.15S220.31,112.4,249.39,112.4,302,249.35,302,289.19Z" style="fill:#22C55E"></path><path d="M302,289.19c0,39.85-23.57,72.15-52.65,72.15s-52.65-32.3-52.65-72.15S220.31,112.4,249.39,112.4,302,249.35,302,289.19Z" style="fill:#fff;opacity:0.5"></path><polygon points="220.95 292.77 237.74 298.63 246.06 309.94 244.61 344.56 234.93 337.99 244.31 351.73 242.91 453 253.51 453.54 251.03 325.42 278.91 310.04 262.97 315.94 266.17 306.34 258.55 317.57 250.94 320.39 250.4 288.87 278.09 252.08 263.25 266.92 265.76 256.6 258.66 271.51 250.24 279.93 249.39 230.69 246.38 302.5 220.13 274.69 234.55 294.29 220.95 292.77" style="fill:#b2b2b2"></polygon><path d="M278.36,230.85s.48,4.84-2.16,8.39-7.42,4.47-7.42,4.47-.48-4.84,2.16-8.39S278.36,230.85,278.36,230.85Z" style="fill:#fff"></path><path d="M294.23,253.15s.48,4.83-2.16,8.38-7.42,4.47-7.42,4.47-.49-4.83,2.16-8.38S294.23,253.15,294.23,253.15Z" style="fill:#fff"></path><path d="M294.22,296.55s-1.17,4.72-4.86,7.18-8.49,1.71-8.49,1.71,1.17-4.72,4.86-7.17S294.22,296.55,294.22,296.55Z" style="fill:#fff"></path><path d="M207.07,296.55s1.17,4.72,4.85,7.18,8.49,1.71,8.49,1.71-1.17-4.72-4.85-7.17S207.07,296.55,207.07,296.55Z" style="fill:#fff"></path><path d="M275.89,278.54s.49,4.83-2.16,8.38-7.41,4.47-7.41,4.47-.49-4.83,2.15-8.38S275.89,278.54,275.89,278.54Z" style="fill:#fff"></path><path d="M271.78,206.6s.49,4.83-2.16,8.38-7.42,4.48-7.42,4.48-.48-4.84,2.16-8.39S271.78,206.6,271.78,206.6Z" style="fill:#fff"></path><path d="M262.32,225.09s.49,4.84-2.15,8.39-7.42,4.47-7.42,4.47-.49-4.83,2.16-8.38S262.32,225.09,262.32,225.09Z" style="fill:#fff"></path><path d="M284.77,211.63s.49,4.83-2.16,8.38-7.41,4.47-7.41,4.47-.49-4.83,2.15-8.38S284.77,211.63,284.77,211.63Z" style="fill:#fff"></path><path d="M211.83,211.63s-.48,4.83,2.16,8.38,7.42,4.47,7.42,4.47.48-4.83-2.16-8.38S211.83,211.63,211.83,211.63Z" style="fill:#fff"></path><path d="M273.83,184s.49,4.83-2.15,8.38-7.42,4.48-7.42,4.48-.49-4.84,2.16-8.39S273.83,184,273.83,184Z" style="fill:#fff"></path><path d="M269.19,160s1.68,4.56,0,8.66-6.06,6.19-6.06,6.19-1.69-4.56,0-8.66S269.19,160,269.19,160Z" style="fill:#fff"></path><path d="M235.89,153.69s4.31,2.26,5.82,6.42-.35,8.66-.35,8.66-4.31-2.26-5.82-6.42S235.89,153.69,235.89,153.69Z" style="fill:#fff"></path><path d="M251.42,182.41s3.07,3.77,2.81,8.19-3.73,7.82-3.73,7.82-3.07-3.77-2.81-8.19S251.42,182.41,251.42,182.41Z" style="fill:#fff"></path><path d="M250.6,139.66s3.07,3.77,2.81,8.19-3.73,7.82-3.73,7.82-3.07-3.77-2.82-8.19S250.6,139.66,250.6,139.66Z" style="fill:#fff"></path><path d="M215.75,230.85s-.48,4.84,2.16,8.39,7.42,4.47,7.42,4.47.48-4.84-2.16-8.39S215.75,230.85,215.75,230.85Z" style="fill:#fff"></path><path d="M206.71,257.16s-.49,4.84,2.16,8.39,7.41,4.47,7.41,4.47.49-4.84-2.15-8.39S206.71,257.16,206.71,257.16Z" style="fill:#fff"></path><path d="M230.72,266.71s-.49,4.84,2.15,8.39,7.42,4.47,7.42,4.47.49-4.84-2.16-8.39S230.72,266.71,230.72,266.71Z" style="fill:#fff"></path><path d="M237.28,230.26s-1.85,4.49-.34,8.65,5.83,6.41,5.83,6.41,1.85-4.5.34-8.66S237.28,230.26,237.28,230.26Z" style="fill:#fff"></path><path d="M220.28,327.26s4.86.09,8.18-2.84,3.85-7.76,3.85-7.76-4.86-.08-8.18,2.84S220.28,327.26,220.28,327.26Z" style="fill:#fff"></path><path d="M266.92,321.94s1.32,4.68,5.08,7,8.54,1.44,8.54,1.44-1.32-4.68-5.08-7S266.92,321.94,266.92,321.94Z" style="fill:#fff"></path><path d="M225.7,206.6s-.48,4.83,2.16,8.38,7.42,4.48,7.42,4.48.48-4.84-2.16-8.39S225.7,206.6,225.7,206.6Z" style="fill:#fff"></path><path d="M225.62,185.22s-.49,4.84,2.16,8.39,7.41,4.47,7.41,4.47.49-4.84-2.15-8.39S225.62,185.22,225.62,185.22Z" style="fill:#fff"></path></g><g id="freepik--Plants--inject-496"><path d="M101.65,406.07c-3.55.58-8.53,3.47-10.74,4.92a60,60,0,0,0-6,2.12c1.87-1.65,6.93-6.16,6-10.58-1.42-5.72-8.07-1.06-7.92,3.66,0,3.88-.47,6.81-1.13,8.25a64.47,64.47,0,0,0-6.32,3.47c1.52-1.88,5.8-7.22,4.15-11.47-2.35-5.39-8,.29-7.11,4.91.64,3.85.69,6.81.28,8.34a62.53,62.53,0,0,0-5.66,4.48c1.16-2.06,4.54-8.09,2.18-12-3.22-4.92-7.87,1.61-6.18,6,1.28,3.69,1.83,6.61,1.67,8.18A63.09,63.09,0,0,0,60,431.7c.81-2.26,3.13-8.76.16-12.23-4-4.32-7.51,2.92-5.11,7,1.87,3.42,2.89,6.21,3,7.8a62.37,62.37,0,0,0-3.89,6.1,27.64,27.64,0,0,0,.52-6c1-1.78,1-3.53-.82-4a5.81,5.81,0,0,0-1.58-2.15,4.56,4.56,0,0,0-1-.63c3.33-2.2,4.78-6.05-.43-6.06-4.66-.16-6.89,5.48-7.54,8a61.22,61.22,0,0,1-.57-6.76c1-1.22,3.5-2.73,7.09-3.68,4.28-1.29,7.32-5.46,1.69-6.42-4.56-.94-7.7,4.22-8.77,6.62a60.48,60.48,0,0,1,.56-6.72c1.2-1,3.9-2.1,7.61-2.44,4.43-.56,8.13-4.17,2.74-6.07-4.37-1.7-8.36,3-9.79,5.13a59.85,59.85,0,0,1,1.68-6.58c1.35-.82,4.21-1.45,7.94-1.17,4.47.19,8.74-2.79,3.75-5.57-4-2.42-8.81,1.6-10.57,3.5a60.33,60.33,0,0,1,2.57-5.83c1.81-1.75,5.21-4.89,6.73-6.12,2-1.91,3.84-4.62,2.93-6.48s-4.48-2.79-7,1.21c-2,3-3.26,8.61-3.7,11.22a59.57,59.57,0,0,0-2.56,5.87c.06-2.5.2-9.28-3.64-11.64-5.15-2.85-6.26,5.19-2.7,8.3,2.82,2.66,4.67,5,5.28,6.44a58.59,58.59,0,0,0-1.76,7c-.35-2.39-1.35-9.16-5.58-10.85-5.56-1.94-5.28,6.1-1.25,8.56,3.26,2.15,5.47,4.13,6.3,5.47a64.08,64.08,0,0,0-.56,7.2C41,417.54,38.91,411,34.42,410c-5.8-1-4.18,6.86.2,8.62,3.58,1.58,6.09,3.16,7.14,4.35a62.11,62.11,0,0,0,.63,7.19c-1.11-2.13-4.29-8.26-8.86-8.44-5.89,0-3,7.49,1.64,8.5,3.79,1,6.53,2.11,7.76,3.11a63.14,63.14,0,0,0,1.82,7c-1.5-2-5.65-7.43-10.13-6.85-5.8,1-1.65,7.95,3.08,8.19,3.86.32,6.75,1,8.16,1.78a61.38,61.38,0,0,0,3.6,7.72.49.49,0,0,0,.28.61h0a.5.5,0,0,0,.62-.31,61.48,61.48,0,0,1,3.16-7.78c1.47-.64,4.4-.87,8.07,0,4.41.81,9.07-1.5,4.54-5-3.63-3-8.92.27-11,1.91a61.94,61.94,0,0,1,3.74-5.82c1.56-.35,4.45-.06,7.89,1.37,4.19,1.57,9.15.11,5.27-4.09-3-3.53-8.7-1.32-11-.06a60.17,60.17,0,0,1,4.57-5c1.58-.08,4.37.71,7.51,2.69,3.86,2.26,9,1.65,5.86-3.14-2.42-4-8.33-2.76-10.83-1.91a62.38,62.38,0,0,1,5.31-4.17c1.58.19,4.2,1.43,7,3.92,3.43,2.87,8.59,3.12,6.31-2.13-1.73-4.35-7.85-4.1-10.42-3.68a60.27,60.27,0,0,1,6-3.24c1.52.43,3.92,2.09,6.26,5,2.9,3.4,8,4.5,6.63-1.05-1-4.62-7.16-5.37-9.76-5.37a60.42,60.42,0,0,1,6-2.08c2.51.13,7.13.49,9.06.76,2.75.17,6-.32,6.74-2.26S106.27,405.18,101.65,406.07ZM47.36,429.81a7.28,7.28,0,0,0-.1,3.94,15.55,15.55,0,0,0-1.66,6,62.87,62.87,0,0,1-1.72-6.71A11.09,11.09,0,0,1,47.36,429.81Zm2.54,20.11a59.76,59.76,0,0,1-3.13-6.82,11.93,11.93,0,0,1,3.51-4.46,16.85,16.85,0,0,1,2.39,4.65A60.19,60.19,0,0,0,49.9,449.92Z" style="fill:#263238"></path><path d="M471.85,408.19c-3.38.55-8.13,3.31-10.24,4.69a60.39,60.39,0,0,0-5.76,2c1.79-1.57,6.61-5.87,5.77-10.09-1.35-5.45-7.69-1-7.55,3.5,0,3.7-.45,6.49-1.08,7.86a61.8,61.8,0,0,0-6,3.31c1.45-1.8,5.53-6.89,4-10.94-2.25-5.14-7.69.28-6.79,4.69.61,3.67.66,6.49.27,7.95a61.73,61.73,0,0,0-5.4,4.27c1.1-2,4.33-7.72,2.08-11.47-3.07-4.7-7.51,1.54-5.89,5.74,1.22,3.52,1.74,6.31,1.59,7.8a60.39,60.39,0,0,0-4.61,5.11c.77-2.16,3-8.35.14-11.66-3.81-4.12-7.16,2.78-4.87,6.66,1.79,3.27,2.76,5.93,2.87,7.44a58.62,58.62,0,0,0-3.72,5.82,26.57,26.57,0,0,0,.5-5.7c1-1.7,1-3.37-.78-3.78a5.56,5.56,0,0,0-1.51-2.05,4.72,4.72,0,0,0-1-.6c3.18-2.1,4.56-5.77-.41-5.77-4.44-.16-6.57,5.22-7.19,7.66a58.23,58.23,0,0,1-.54-6.45c1-1.16,3.34-2.6,6.76-3.51,4.08-1.23,7-5.2,1.61-6.12-4.35-.9-7.34,4-8.37,6.32a60,60,0,0,1,.53-6.42c1.16-1,3.73-2,7.26-2.32,4.23-.53,7.76-4,2.62-5.79-4.17-1.62-8,2.82-9.34,4.89a57.25,57.25,0,0,1,1.61-6.28c1.29-.78,4-1.38,7.57-1.11,4.26.19,8.34-2.66,3.58-5.31-3.87-2.31-8.41,1.52-10.09,3.33.72-1.88,1.54-3.74,2.45-5.56,1.73-1.66,5-4.66,6.42-5.83,1.9-1.82,3.67-4.41,2.79-6.18s-4.26-2.66-6.64,1.16c-1.9,2.86-3.11,8.21-3.53,10.69a58.9,58.9,0,0,0-2.44,5.6c.06-2.38.19-8.84-3.47-11.09-4.91-2.72-6,4.95-2.58,7.91,2.7,2.53,4.45,4.74,5,6.14a57.09,57.09,0,0,0-1.68,6.67c-.34-2.29-1.29-8.74-5.33-10.35-5.29-1.85-5,5.82-1.18,8.16,3.1,2.05,5.21,3.94,6,5.21a60.75,60.75,0,0,0-.54,6.87c-.69-2.15-2.71-8.43-7-9.34-5.53-.94-4,6.55.19,8.23,3.41,1.5,5.81,3,6.81,4.14a58.25,58.25,0,0,0,.6,6.86c-1.06-2-4.09-7.87-8.45-8-5.61,0-2.83,7.14,1.57,8.1,3.61.92,6.22,2,7.4,3a60.12,60.12,0,0,0,1.73,6.68c-1.43-1.91-5.39-7.1-9.66-6.54-5.53.94-1.57,7.58,2.94,7.81,3.68.31,6.44,1,7.78,1.7a58.46,58.46,0,0,0,3.43,7.36.47.47,0,0,0,.27.58h0a.46.46,0,0,0,.59-.3,57.79,57.79,0,0,1,3-7.41c1.4-.62,4.19-.84,7.69,0,4.2.77,8.65-1.43,4.33-4.75-3.46-2.86-8.51.25-10.46,1.82a57.57,57.57,0,0,1,3.57-5.55c1.48-.34,4.24-.05,7.52,1.31,4,1.5,8.73.1,5-3.9-2.91-3.37-8.3-1.26-10.51-.06a59.82,59.82,0,0,1,4.36-4.78c1.51-.07,4.18.68,7.17,2.57,3.68,2.15,8.57,1.57,5.58-3-2.3-3.8-7.94-2.64-10.32-1.83a57.11,57.11,0,0,1,5.06-4c1.5.18,4,1.37,6.65,3.74,3.26,2.74,8.19,3,6-2-1.66-4.16-7.49-3.92-9.94-3.52a58.81,58.81,0,0,1,5.69-3.09c1.45.41,3.74,2,6,4.79,2.76,3.25,7.62,4.3,6.33-1-.94-4.41-6.84-5.12-9.31-5.12a57.22,57.22,0,0,1,5.74-2c2.4.13,6.8.47,8.64.73,2.63.16,5.73-.31,6.43-2.16S476.27,407.34,471.85,408.19Zm-51.77,22.64a6.93,6.93,0,0,0-.09,3.76,14.83,14.83,0,0,0-1.59,5.75,59.46,59.46,0,0,1-1.64-6.4A10.62,10.62,0,0,1,420.08,430.83ZM422.5,450a56,56,0,0,1-3-6.51,11.3,11.3,0,0,1,3.35-4.25,15.65,15.65,0,0,1,2.27,4.44A57.63,57.63,0,0,0,422.5,450Z" style="fill:#263238"></path></g><g id="freepik--Floor--inject-496"><polyline points="17.34 457.27 38.14 454.19 32.29 452.55 41.2 451.72 39.29 447.56 45.66 450.06 50.43 447.01 51.7 450.61 55.2 447.56 55.52 451.16 59.66 448.95 60.3 452 73.67 447.56 73.35 450.06 76.85 448.67 83.85 451.16 84.17 448.12 89.58 451.16 89.9 448.95 92.13 450.61 94.68 446.73 98.18 451.72 106.45 447.84 106.45 451.44 111.55 449.5 112.18 451.44 116.64 449.5 121.42 451.44 142.74 448.67 141.79 450.89 146.56 449.78 152.61 449.23 155.16 451.44 157.7 449.5 161.52 451.44 161.84 448.39 165.03 451.44 169.48 447.84 170.44 451.44 179.03 448.39 179.35 451.72 196.22 449.23 194.63 451.44 201 450.89 205.45 452.27 210.23 448.39 217.55 451.44 217.87 449.5 221.69 451.16 223.28 447.84 225.82 451.16 230.92 448.95 231.55 450.89 236.01 449.78 238.24 451.72 246.2 450.61 246.83 452.55 258.61 449.78 259.88 452.27 264.66 448.67 267.52 450.89 268.8 447.29 272.94 450.33 277.71 447.29 276.75 450.89 280.89 448.95 282.49 451.16 287.58 449.5 289.17 451.44 291.72 450.61 294.9 451.44 302.22 448.67 305.4 450.89 307.31 448.67 309.54 450.61 311.13 448.12 314 451.72 318.14 449.23 320.05 451.72 324.19 448.12 325.46 451.44 336.92 449.78 343.92 448.39 342.65 451.44 351.24 449.23 355.06 451.16 356.33 447.84 360.79 450.06 363.02 447.84 365.88 449.78 369.39 448.39 372.25 450.89 379.89 448.39 382.12 450.89 386.89 448.67 387.85 450.89 393.58 449.5 393.9 451.72 398.35 449.23 401.86 450.06 405.04 447.84 406.63 450.06 409.18 447.56 410.13 450.61 417.45 448.67 419.68 450.89 424.77 448.67 427.64 451.16 428.91 448.12 435.6 451.44 434.96 447.56 439.74 450.06 439.74 447.56 442.92 450.33 444.83 446.73 446.1 449.78 448.75 448.25 449.92 447.56 449.6 451.44 455.33 449.23 455.33 451.44 462.65 450.61 460.79 454.19 477.61 455.73" style="fill:#22C55E;stroke:#263238;stroke-linecap:round;stroke-linejoin:round"></polyline></g><g id="freepik--bear-2--inject-496"><path d="M286.69,241s-16.26,13.37-34.33,21.32-51.68,6.87-60.72,17,1.45,17.35,12.65,19.88,28.91,2.53,28.91,2.53,22.05,6.86,32.17,4.7l10.12-2.17s24.94-64.34,20.6-66.5S286.69,241,286.69,241Z" style="fill:#22C55E;stroke:#263238;stroke-linecap:round;stroke-linejoin:round"></path><path d="M215.13,272.42s-7.59-2.53-19.88,1.09-5.78,5.78-.36,5.78a53.63,53.63,0,0,1,7.59.36s1.09,11.21,13,8.68" style="fill:#22C55E;stroke:#263238;stroke-linecap:round;stroke-linejoin:round"></path><line x1="188.77" y1="285.75" x2="202.84" y2="286.52" style="fill:none;stroke:#263238;stroke-linecap:round;stroke-linejoin:round"></line><path d="M192,293.39s11.21,1.8,15.9,1.44" style="fill:none;stroke:#263238;stroke-linecap:round;stroke-linejoin:round"></path><path d="M343.06,150.7S328.34,136,328.34,138.25a52.14,52.14,0,0,0,1.41,7.93s-15.28-3.4-11.6,1.13,5.66,6.79,5.66,6.79l-11.32-3.4s4.53-15,1.13-18.39-15.85-3.68-22.64,3.39-5.94,13.59-3.68,15.85,6.23,4,7.36,4.53-24.06,32.27-20.38,44.72,18.12,24.34,18.12,24.34-25.19,43.59-35.1,81.51-14.15,51.51-4.24,71.61,19.52,30.56,19.52,30.56l.29,18.4s-30.85,20.66-31.7,26.89,7.07,15.28,33.11,11,39.34-15.28,40.47-17.26,1.7-24.06,1.7-24.06l24.63,4s4.81,25.48,13.86,31.42,26.61,15.57,40.19,13.58,11.89-11,11-14.15-7.08-19.24-7.08-19.24l-6.22-27.46S411,392.41,411,357.88s-11.32-50.38-11.32-50.38-16.41-65.94-20.38-87.74-7.64-51.22-7.64-51.22,12.17-8.5,8.21-19.53-17-17-25.47-13.87S346.74,147,347,149.57a24.32,24.32,0,0,0,1.41,5.38Z" style="fill:#22C55E;stroke:#263238;stroke-linecap:round;stroke-linejoin:round"></path><path d="M302.31,168a1.82,1.82,0,0,1,.54-2.25c2.06-1.54,6.4-4.32,9.76-3.29l2.71.84a1.82,1.82,0,0,1,1.16,2.38l-.54,1.43a1.82,1.82,0,0,1-2.16,1.11c-2.15-.56-5.95-1.29-7.85-.11l-1,.64a1.81,1.81,0,0,1-2.58-.75Z" style="fill:#263238"></path><path d="M335.08,172.19a1.82,1.82,0,0,0,.19-2.31c-1.48-2.1-4.75-6.1-8.26-6.15l-2.84,0a1.82,1.82,0,0,0-1.84,1.89l.08,1.53a1.82,1.82,0,0,0,1.7,1.73c2.22.13,6.06.62,7.5,2.33l.79.92a1.81,1.81,0,0,0,2.68.1Z" style="fill:#263238"></path><polygon points="316.45 423.82 301.95 419.53 316.16 431 316.45 423.82" style="fill:#263238;stroke:#263238;stroke-linecap:round;stroke-linejoin:round"></polygon><path d="M392.87,411.93s-8.63,6.6-12.12,8.85" style="fill:none;stroke:#263238;stroke-linecap:round;stroke-linejoin:round"></path><path d="M272.58,408.82a32.15,32.15,0,0,0,6.18,4.72" style="fill:none;stroke:#263238;stroke-linecap:round;stroke-linejoin:round"></path><path d="M246.22,462.11s-2.15-5.92,9.43-18" style="fill:none;stroke:#263238;stroke-linecap:round;stroke-linejoin:round"></path><path d="M258.34,465.88s-.27-8.34,10.77-18" style="fill:none;stroke:#263238;stroke-linecap:round;stroke-linejoin:round"></path><path d="M392.67,472.88A39.47,39.47,0,0,0,376.79,453" style="fill:none;stroke:#263238;stroke-linecap:round;stroke-linejoin:round"></path><path d="M403.44,469.65s0-16.15-10.77-21.8" style="fill:none;stroke:#263238;stroke-linecap:round;stroke-linejoin:round"></path><path d="M306,153s-14.43-.85-15.28-5.1,9.05-11.88,14.15-12.17S309.66,149.86,306,153Z" style="fill:#fff;stroke:#263238;stroke-linecap:round;stroke-linejoin:round"></path><path d="M358.91,160.61s-7.08-10.47-4.82-16.41,11.61-7.08,16.7,2.26-3.11,13.87-6.79,14.72S358.91,160.61,358.91,160.61Z" style="fill:#fff;stroke:#263238;stroke-linecap:round;stroke-linejoin:round"></path><path d="M292.68,192.88s-4.25,6.79-2,11.88,4.53,10.47,22.64,11.61,27.45-7.36,30.85-15,0-13-5.94-13-15.85,1.13-15.85,1.13h-6.23S296.92,186.37,292.68,192.88Z" style="fill:#fff;stroke:#263238;stroke-linecap:round;stroke-linejoin:round"></path><path d="M312.77,187.21s-13.3-5.94-18.39-2-.57,10.76,4,11.89,17-5.09,17.83-7.64S312.77,187.21,312.77,187.21Z" style="fill:#263238;stroke:#263238;stroke-linecap:round;stroke-linejoin:round"></path><path d="M298.34,197.12S302,211.55,315,213.54,334,200,334,200" style="fill:none;stroke:#263238;stroke-linecap:round;stroke-linejoin:round"></path><path d="M330.32,200s4.53-1.13,6.79.28" style="fill:none;stroke:#263238;stroke-linecap:round;stroke-linejoin:round"></path><path d="M328.91,179.86c0,2.5-1.15,4.52-2.55,4.52s-2.55-2-2.55-4.52,1.14-4.53,2.55-4.53S328.91,177.36,328.91,179.86Z" style="fill:#263238"></path><ellipse cx="309.66" cy="177.87" rx="2.55" ry="4.53" style="fill:#263238"></ellipse><path d="M360.07,324.41c0,47.54-21.41,86.08-47.84,86.08S264.39,372,264.39,324.41,297,236,312.23,238.32C326.33,240.47,360.07,276.86,360.07,324.41Z" style="fill:#fff;stroke:#263238;stroke-linecap:round;stroke-linejoin:round"></path><path d="M357.14,253.06s1.05,43.5-1.74,66.47,7.31,47.68,15,54.29,14.61.35,16-7.3,1-22.63,1-22.63,13.92-26.1,13.92-49.76-19.14-60.56-23.66-66.82L373.15,221" style="fill:#22C55E;stroke:#263238;stroke-linecap:round;stroke-linejoin:round"></path><path d="M367,352.49s-.91,14,6.34,23.09" style="fill:none;stroke:#263238;stroke-linecap:round;stroke-linejoin:round"></path><path d="M375.16,353.85s.45,16.75,6.64,20.37" style="fill:none;stroke:#263238;stroke-linecap:round;stroke-linejoin:round"></path></g><g id="freepik--bears-1--inject-496"><path d="M212.13,176.81l-22-11s2.54-11-5.08-19.47-25.82-4.66-30.48,6.77,11,22.44,11,22.44-30.49,16.09-42.76,39.37S73.69,268.25,69.45,322,78.77,403.3,81.73,408,86.39,416,86.39,416,75,447.33,81.73,454.53s39.37,9.31,46.15,6.35,10.58-4.23,9.31-10.58-5.08-13.55-5.08-13.55,5.08-8.89,5.08-11.85v-3l25.83.85a71.32,71.32,0,0,1-.85,14.39c-1.27,7.62-3.39,18.21,1.69,21.17S207.05,463.42,213,460s-7.2-17.78-7.2-17.78,9.74-7.19,10.59-16.93-.85-15.67-.85-15.67,6.78-3.38,15.67-34.71,1.27-72.82-.43-91-1.69-37.68-1.69-37.68,7.62-4.66,5.08-16.09S229.91,198,229.91,198s14.39-8.89,9.31-21.17S216.36,165,212.13,176.81Z" style="fill:#22C55E;stroke:#263238;stroke-linecap:round;stroke-linejoin:round"></path><path d="M192.33,203.45s5.15-5.89,10.55-1.72" style="fill:none;stroke:#263238;stroke-linecap:round;stroke-linejoin:round"></path><path d="M214.42,205.17s7.36-2,6.87,6.87" style="fill:none;stroke:#263238;stroke-linecap:round;stroke-linejoin:round"></path><path d="M114.53,446.78s12.3,4.88,13.35,14.1" style="fill:none;stroke:#263238;stroke-linecap:round;stroke-linejoin:round"></path><path d="M127.18,442.57a17.93,17.93,0,0,1,6.95,14.14" style="fill:none;stroke:#263238;stroke-linecap:round;stroke-linejoin:round"></path><path d="M163,422.78l12.29-.31-13.14,14.7S163.62,426.81,163,422.78Z" style="fill:#263238;stroke:#263238;stroke-linecap:round;stroke-linejoin:round"></path><path d="M226.09,349c-8.22,44-38.45,75.23-67.53,69.8s-46-45.49-37.78-89.47,51.13-75.1,67.53-69.8C203.44,264.4,234.3,305,226.09,349Z" style="fill:#fff;stroke:#263238;stroke-linecap:round;stroke-linejoin:round"></path><path d="M217.48,180l10.46,12.68s8.45-1.41,7.24-9.66S223.31,174.33,217.48,180Z" style="fill:#fff;stroke:#263238;stroke-linecap:round;stroke-linejoin:round"></path><ellipse cx="173.31" cy="161.65" rx="10.97" ry="10.46" style="fill:#fff;stroke:#263238;stroke-linecap:round;stroke-linejoin:round"></ellipse><path d="M208.08,174.14s-2.62-16.9-7.62-17.29c-3.11-.23-6.08,2.75-6.47,6.63s-2.1,14.59,2.75,15S208.08,174.14,208.08,174.14Z" style="fill:#9c9c9c;stroke:#263238;stroke-linecap:round;stroke-linejoin:round"></path><path d="M208.08,174.14s-5-7.31-9.08-5.54-4.26,8.89-2.26,9.84S207.13,176.14,208.08,174.14Z" style="fill:#263238;stroke:#263238;stroke-linecap:round;stroke-linejoin:round"></path><path d="M206.25,167.06s12.83-2.4,16,.8-1.84,12.57-6.88,14.13-7.33-7.85-7.33-7.85Z" style="fill:#9c9c9c;stroke:#263238;stroke-linecap:round;stroke-linejoin:round"></path><path d="M208.08,174.14s10.22.62,10.28,3.59-1.6,4.81-5.12,4S208.64,176,208.08,174.14Z" style="fill:#263238;stroke:#263238;stroke-linecap:round;stroke-linejoin:round"></path><path d="M200.7,222.31s-17.79-7.21-22.59-4.09-7.21,9.62-5.53,17.55,8.65,20.91,22.83,18.5,20.43-13,21.15-18.5S200.7,222.31,200.7,222.31Z" style="fill:#fff;stroke:#263238;stroke-linecap:round;stroke-linejoin:round"></path><path d="M206,238.89s-8.42,10.82-16.83,11.78-13.22-6.25-13-13,4.57-8.17,4.57-8.17" style="fill:none;stroke:#263238;stroke-linecap:round;stroke-linejoin:round"></path><line x1="178.35" y1="228.08" x2="182.91" y2="230.72" style="fill:none;stroke:#263238;stroke-linecap:round;stroke-linejoin:round"></line><path d="M210.79,222.55s-9.37-4.33-12,4.08,7,13.94,14.42,12.26,10.81-5.77,8.41-10.33S210.79,222.55,210.79,222.55Z" style="fill:#263238;stroke:#263238;stroke-linecap:round;stroke-linejoin:round"></path><path d="M198.71,213.51c-1.33,2.37-3.34,3.77-4.5,3.12s-1-3.1.3-5.47,3.35-3.78,4.51-3.13S200,211.13,198.71,213.51Z" style="fill:#263238"></path><path d="M216.08,216.78c-1.33,2.37-3.34,3.77-4.5,3.13s-1-3.1.31-5.48,3.34-3.77,4.5-3.12S217.41,214.4,216.08,216.78Z" style="fill:#263238"></path><path d="M229.06,246.24s-9.13,9.24-20.43,11.4" style="fill:none;stroke:#263238;stroke-linecap:round;stroke-linejoin:round"></path><path d="M195.9,449.51s9.18,4.22,8.93,12.16" style="fill:none;stroke:#263238;stroke-linecap:round;stroke-linejoin:round"></path><path d="M204.09,445.29s9.08,8.89,8.88,14.74" style="fill:none;stroke:#263238;stroke-linecap:round;stroke-linejoin:round"></path><path d="M238.68,312.23a17.5,17.5,0,0,0,6.74,1.34c9.29,0,16.82-7.15,16.82-16s-7.53-16-16.82-16-16.82,7.15-16.82,16" style="fill:#22C55E;stroke:#263238;stroke-linecap:round;stroke-linejoin:round"></path><ellipse cx="245.42" cy="297.61" rx="7.65" ry="7.26" style="fill:#fff;stroke:#263238;stroke-linecap:round;stroke-linejoin:round"></ellipse><path d="M265.09,338.26s22.86,31,25.8,43.49-1.84,14-4.05,12.9-4.79-5.52-4.79-5.52-1.48,5.16-4.42,4.42S265.09,338.26,265.09,338.26Z" style="fill:#22C55E;stroke:#263238;stroke-linecap:round;stroke-linejoin:round"></path><path d="M192,434.78c0-.65,1.29,14.66,1.29,14.66s-13.58,7.76-15.95,13.8-.22,8.84,12.07,10.35,30.19-4.75,34.29-9.06,5.39-18.11,5.39-18.11Z" style="fill:#22C55E;stroke:#263238;stroke-linecap:round;stroke-linejoin:round"></path><path d="M178.81,470.14s0-5.83,6-10.14" style="fill:none;stroke:#263238;stroke-linecap:round;stroke-linejoin:round"></path><path d="M187,472.94s-.43-6.9,5.61-10.35" style="fill:none;stroke:#263238;stroke-linecap:round;stroke-linejoin:round"></path><path d="M271.09,426.15c0-.65,1.51,22.64,1.51,22.64s13.58,7.76,15.95,13.8.22,8.84-12.07,10.35-30.18-4.74-34.28-9.06-5.39-18.11-5.39-18.11Z" style="fill:#22C55E;stroke:#263238;stroke-linecap:round;stroke-linejoin:round"></path><path d="M287.05,469.49s0-5.82-6-10.13" style="fill:none;stroke:#263238;stroke-linecap:round;stroke-linejoin:round"></path><path d="M278.85,472.29s.43-6.9-5.6-10.35" style="fill:none;stroke:#263238;stroke-linecap:round;stroke-linejoin:round"></path><path d="M269.15,347.84s-11.43-43.12-37.23-54.18-47.55,1.85-57.13,27.28-6.63,85.51,8.85,106.52,34.28,26.17,62.29,20.64,36.49-39.44,34.28-61.19A123.22,123.22,0,0,0,269.15,347.84Z" style="fill:#22C55E;stroke:#263238;stroke-linecap:round;stroke-linejoin:round"></path><polygon points="200.62 310.94 206.3 303.59 209.87 306.74 202.09 313.89 200.62 310.94" style="fill:#263238"></polygon><polygon points="226.9 299.17 225.43 303.17 235.31 305.06 235.52 301.91 226.9 299.17" style="fill:#263238"></polygon><ellipse cx="226.39" cy="335.13" rx="15.11" ry="14.93" style="fill:#fff;stroke:#263238;stroke-linecap:round;stroke-linejoin:round"></ellipse><path d="M228.55,327.4l.62,12.84s-7.24,3.93-9.31-2.9" style="fill:none;stroke:#263238;stroke-linecap:round;stroke-linejoin:round"></path><path d="M232.66,323.15c0,2.24-2.64,4.05-5.9,4.05s-5.9-1.81-5.9-4.05,2.64-4.06,5.9-4.06S232.66,320.91,232.66,323.15Z" style="fill:#263238;stroke:#263238;stroke-linecap:round;stroke-linejoin:round"></path><path d="M213.61,317.57c1,2.22.72,4.54-.66,5.17s-3.34-.64-4.36-2.86-.73-4.53.66-5.17S212.59,315.35,213.61,317.57Z" style="fill:#263238"></path><path d="M233.76,313.93c0,2.45-1.23,4.43-2.76,4.43s-2.76-2-2.76-4.43,1.23-4.42,2.76-4.42S233.76,311.49,233.76,313.93Z" style="fill:#263238"></path><path d="M177.62,324.76a17.55,17.55,0,0,1-6.75,1.34c-9.29,0-16.82-7.15-16.82-16s7.53-16,16.82-16,16.82,7.14,16.82,16" style="fill:#22C55E;stroke:#263238;stroke-linecap:round;stroke-linejoin:round"></path><ellipse cx="170.87" cy="310.14" rx="7.65" ry="7.26" style="fill:#fff;stroke:#263238;stroke-linecap:round;stroke-linejoin:round"></ellipse><ellipse cx="233.95" cy="398.52" rx="41.47" ry="43.68" style="fill:#fff;stroke:#263238;stroke-linecap:round;stroke-linejoin:round"></ellipse><path d="M174.79,343.42s-24,49.39-20.27,60.45,11.43,6.63,14,4.42a54.36,54.36,0,0,0,6.26-7.37s2.58,7,4.79,2.58a38.55,38.55,0,0,0,2.95-10.69l14.38-24.33" style="fill:#22C55E;stroke:#263238;stroke-linecap:round;stroke-linejoin:round"></path><path d="M136.52,256.68s2.17,40.86,13.95,63,14.9,20.19,14.9,20.19,6.73,1.2,9.85,2.16,8.89,3.37,7,5.53a12.88,12.88,0,0,1-4.32,3.12s7.69,12.74,6.73,16.59S176.9,374,161,374.45s-26.68-9.37-42.3-27.4S92.54,302.1,91.1,293" style="fill:#22C55E;stroke:#263238;stroke-linecap:round;stroke-linejoin:round"></path><path d="M165.13,360.75s8.89,8.41,17.06,10.09" style="fill:none;stroke:#263238;stroke-linecap:round;stroke-linejoin:round"></path><path d="M154.55,365.08s8.41,6.25,15.86,8.89" style="fill:none;stroke:#263238;stroke-linecap:round;stroke-linejoin:round"></path><path d="M177.87,350.65s-5.29-4.08-8.66-5.52" style="fill:#fff;stroke:#263238;stroke-linecap:round;stroke-linejoin:round"></path></g></svg>
