<svg xmlns="http://www.w3.org/2000/svg" viewBox="0 0 500 500"><g id="freepik--background-simple--inject-440"><path d="M440,130.72S398,47,258,46,129,132.67,114,176.49,30,224.21,31,305,66,399.5,104,420s89,81.8,191,65.25,116-67.2,146-112S498,211.55,440,130.72Z" style="fill:#22C55E"></path><path d="M440,130.72S398,47,258,46,129,132.67,114,176.49,30,224.21,31,305,66,399.5,104,420s89,81.8,191,65.25,116-67.2,146-112S498,211.55,440,130.72Z" style="fill:#fff;opacity:0.7000000000000001"></path></g><g id="freepik--Clouds--inject-440"><g style="opacity:0.30000000000000004"><path d="M279,116.46c-1.26-1.61-3.46-3.09-7.27-3.21-8.57-.25-6.27,7.17-8.57,9s-2.92-1-5.22.77-1.25,5.37-3.13,5.89-4.39-2.31-6.69-.52-2.3,3.33-3.34,3.33-3.14-1-4.39,0-2.72,2.31-2.72,2.31h22.44" style="fill:none;stroke:#000;stroke-linecap:round;stroke-linejoin:round"></path><path d="M281.38,121l-.65-.36A8,8,0,0,0,280,118" style="fill:none;stroke:#000;stroke-linecap:round;stroke-linejoin:round"></path><path d="M263,134h27.55a3.61,3.61,0,0,0-1.67-3.84c-2.3-1.54-3.34-.26-4.18-1.54s1.66-3.91-2.23-6.85" style="fill:none;stroke:#000;stroke-linecap:round;stroke-linejoin:round"></path></g><g style="opacity:0.30000000000000004"><path d="M159.67,162.94c-1.42-1.47-3.87-2.82-8.12-2.92-9.55-.23-7,6.52-9.55,8.16s-3.26-.94-5.82.69-1.4,4.9-3.5,5.36-4.89-2.09-7.45-.46-2.57,3-3.73,3-3.5-.94-4.89,0-3,2.09-3,2.09h25" style="fill:none;stroke:#000;stroke-linecap:round;stroke-linejoin:round"></path><path d="M162.3,167.11l-.73-.33a6.32,6.32,0,0,0-.85-2.46" style="fill:none;stroke:#000;stroke-linecap:round;stroke-linejoin:round"></path><path d="M141.8,178.89h30.72s.7-2.09-1.86-3.49-3.73-.24-4.66-1.4,1.85-3.55-2.49-6.23" style="fill:none;stroke:#000;stroke-linecap:round;stroke-linejoin:round"></path></g><g style="opacity:0.30000000000000004"><path d="M380.17,133.89h45.45s1.55-4.65-4.13-7.74-8.26-.52-10.32-3.1,5.68-9.3-9.81-16c0,0-1-14.45-22.2-15-9.14-.22-13.27,2.44-15.48,5.83" style="fill:none;stroke:#000;stroke-linecap:round;stroke-linejoin:round"></path><line x1="366.3" y1="133.89" x2="373.86" y2="133.89" style="fill:none;stroke:#000;stroke-linecap:round;stroke-linejoin:round"></line><path d="M360.92,105c-.64,2.2-1.34,4.1-2.93,5.11-5.68,3.61-7.23-2.06-12.91,1.55s-3.1,10.84-7.74,11.87-10.85-4.64-16.53-1-5.67,6.71-8.26,6.71-7.74-2.06-10.84,0-6.71,4.65-6.71,4.65h58.06" style="fill:none;stroke:#000;stroke-linecap:round;stroke-linejoin:round"></path></g></g><g id="freepik--Plants--inject-440"><path d="M223,339.59s0-15.58-7.78-25.09-13.85,32.87-13.85,32.87.87-25.95-10.38-34.6-19.9,38.93-19.9,38.93,1.73-70.08-15.57-83.06,0,61.43,0,61.43-22.42-62.91-46.72-66.62,7.78,63.16,7.78,63.16S72.5,253.07,44.81,246.15s43.26,98.63,43.26,98.63S49.14,314.5,39.62,316.23s41.53,45.85,41.53,45.85S56,352,55,363s23,30,23,30-25-11-27-1,8,12,8,12" style="fill:none;stroke:#000;stroke-linecap:round;stroke-miterlimit:10;stroke-width:2px;opacity:0.2"></path><path d="M281.52,339.59s0-15.58,7.79-25.09,13.84,32.87,13.84,32.87-.86-25.95,10.38-34.6,19.9,38.93,19.9,38.93S331.7,281.62,349,268.64s0,61.43,0,61.43,22.42-62.91,46.72-66.62-7.79,63.16-7.79,63.16,44.13-73.54,71.81-80.46-43.26,98.63-43.26,98.63,38.94-30.28,48.45-28.55-41.53,45.85-41.53,45.85S451,350,450,362s-22,32-22,32,24-9,18,1" style="fill:none;stroke:#000;stroke-linecap:round;stroke-miterlimit:10;stroke-width:2px;opacity:0.2"></path><path d="M232.69,400.83s0-10.44-5.22-16.81-9.27,22-9.27,22,.58-17.4-7-23.19S197.91,409,197.91,409s1.16-47-10.44-55.66,0,41.16,0,41.16-15-42.15-31.3-44.64,5.21,42.32,5.21,42.32-29.56-49.27-48.11-53.91,29,66.09,29,66.09S116.16,384,109.79,385.18s27.82,30.72,27.82,30.72S109,409,108,413s12,8,12,8-37,3-50,10" style="fill:none;stroke:#000;stroke-linecap:round;stroke-miterlimit:10;stroke-width:2px;opacity:0.2"></path><path d="M271.87,400.83s0-10.44,5.22-16.81,9.28,22,9.28,22-.58-17.4,6.95-23.19S306.66,409,306.66,409s-1.16-47,10.43-55.66,0,41.16,0,41.16,15-42.15,31.31-44.64-5.22,42.32-5.22,42.32,29.57-49.27,48.12-53.91-29,66.09-29,66.09S388.4,384,394.78,385.18,367,415.9,367,415.9,399,419,419,429" style="fill:none;stroke:#000;stroke-linecap:round;stroke-miterlimit:10;stroke-width:2px;opacity:0.2"></path></g><g id="freepik--Leaves--inject-440"><path d="M270.09,44.63c-20.32,7.1-54.54,19.79-71.85,30.4-25.58,15.67-59.4,33.82-65.18,36.29" style="fill:none;stroke:#263238;stroke-linecap:round;stroke-miterlimit:10;stroke-width:2px"></path><path d="M286.32,39.13s-3.64,1.17-9.51,3.18" style="fill:none;stroke:#263238;stroke-linecap:round;stroke-miterlimit:10;stroke-width:2px"></path><path d="M211.44,67.6H161.11c-17.32,0-31.35-.82-31.35-.82" style="fill:none;stroke:#263238;stroke-linecap:round;stroke-miterlimit:10;stroke-width:2px"></path><line x1="182.85" y1="67.34" x2="161.64" y2="54.03" style="fill:none;stroke:#263238;stroke-linecap:round;stroke-miterlimit:10;stroke-width:2px"></line><path d="M196.52,76.33s-6.47,20.86-8.27,29.49-6.11,21.94-6.11,21.94" style="fill:none;stroke:#263238;stroke-linecap:round;stroke-miterlimit:10;stroke-width:2px"></path><polyline points="236.8 90 244.35 53.31 214.14 43.24" style="fill:none;stroke:#263238;stroke-linecap:round;stroke-miterlimit:10;stroke-width:2px"></polyline><path d="M152.28,101.5s-15.82-7.55-28.77,2.16-12.58,27-12.58,27,16.18.71,26.61-2.88S152.28,101.5,152.28,101.5Z" style="fill:#22C55E;stroke:#263238;stroke-miterlimit:10"></path><path d="M188.45,106.41s-17.3,2.89-22.33,18.27S171.28,154,171.28,154s13.67-8.69,20.15-17.62S188.45,106.41,188.45,106.41Z" style="fill:#22C55E;stroke:#263238;stroke-miterlimit:10"></path><path d="M239.14,77.54S222.27,82.32,219,98.17s8.37,28.56,8.37,28.56S240,116.58,245.41,107,239.14,77.54,239.14,77.54Z" style="fill:#22C55E;stroke:#263238;stroke-miterlimit:10"></path><path d="M146.21,67.29s-9.14-15-25.28-13.9S95.65,69.12,95.65,69.12s13.17,9.44,23.87,12.12S146.21,67.29,146.21,67.29Z" style="fill:#22C55E;stroke:#263238;stroke-miterlimit:10"></path><path d="M107.77,67.19c-1.4.2-2.76.44-4.06.71" style="fill:none;stroke:#263238;stroke-miterlimit:10"></path><path d="M143.74,66.67s-17.59-1.48-32.45.08" style="fill:none;stroke:#263238;stroke-miterlimit:10"></path><path d="M162.42,54.45s-2.89-17.3-18.27-22.34-29.31,5.15-29.31,5.15,8.69,13.67,17.61,20.16S162.42,54.45,162.42,54.45Z" style="fill:#22C55E;stroke:#263238;stroke-miterlimit:10"></path><path d="M217.8,44.74s-2.88-17.3-18.26-22.34-29.32,5.15-29.32,5.15,8.69,13.67,17.62,20.16S217.8,44.74,217.8,44.74Z" style="fill:#22C55E;stroke:#263238;stroke-miterlimit:10"></path><path d="M131,41.3c-2.09-.44-4.29-.82-6.6-1.12" style="fill:none;stroke:#263238;stroke-miterlimit:10"></path><path d="M158.73,53.32s-8.51-7.22-24.34-11.24" style="fill:none;stroke:#263238;stroke-miterlimit:10"></path><path d="M212.32,41.62S196.51,29.3,179.06,28.68" style="fill:none;stroke:#263238;stroke-miterlimit:10"></path><path d="M234.66,87.29c-3,6.8-7.34,18.69-6.94,29.68" style="fill:none;stroke:#263238;stroke-miterlimit:10"></path><path d="M237.37,81.66s-.64,1.17-1.6,3.19" style="fill:none;stroke:#263238;stroke-miterlimit:10"></path><path d="M120,121.83a29.45,29.45,0,0,0-2.55,3.56" style="fill:none;stroke:#263238;stroke-miterlimit:10"></path><path d="M146.21,104s-14.67,5.89-24,15.4" style="fill:none;stroke:#263238;stroke-miterlimit:10"></path><path d="M182.11,118.07c-4.12,7.29-9.54,18.91-9.42,29.5" style="fill:none;stroke:#263238;stroke-miterlimit:10"></path><path d="M186.66,110.81s-.89,1.24-2.21,3.35" style="fill:none;stroke:#263238;stroke-miterlimit:10"></path><path d="M317.18,23.44C312.93,35,306.09,54.82,304.49,66.35c-2.37,17-6.64,38.65-7.65,42.11" style="fill:none;stroke:#263238;stroke-linecap:round;stroke-miterlimit:10;stroke-width:2px"></path><path d="M320.66,14.24s-.81,2-2.06,5.37" style="fill:none;stroke:#263238;stroke-linecap:round;stroke-miterlimit:10;stroke-width:2px"></path><path d="M306,57.8,287.68,80.1c-6.31,7.68-11.79,13.59-11.79,13.59" style="fill:none;stroke:#263238;stroke-linecap:round;stroke-miterlimit:10;stroke-width:2px"></path><line x1="295.48" y1="70.37" x2="281.85" y2="74.93" style="fill:none;stroke:#263238;stroke-linecap:round;stroke-miterlimit:10;stroke-width:2px"></line><path d="M304.44,67.59S311.33,78.05,314.5,82,322,92.69,322,92.69" style="fill:none;stroke:#263238;stroke-linecap:round;stroke-miterlimit:10;stroke-width:2px"></path><polyline points="325.17 54.71 311.66 38 296.19 47.73" style="fill:none;stroke:#263238;stroke-linecap:round;stroke-miterlimit:10;stroke-width:2px"></polyline><path d="M299.49,96.36s-9.11,4.26-9.52,13.54,7.37,15.4,7.37,15.4,6.21-6.91,8.41-12.84S299.49,96.36,299.49,96.36Z" style="fill:#22C55E;stroke:#263238;stroke-miterlimit:10"></path><path d="M314.83,82.12s-5,8.72,0,16.55,14.87,8.39,14.87,8.39,1.13-9.22-.47-15.35S314.83,82.12,314.83,82.12Z" style="fill:#22C55E;stroke:#263238;stroke-miterlimit:10"></path><path d="M320.5,49.14s-4,9.22,1.79,16.45S338,72.29,338,72.29s.1-9.29-2.16-15.2S320.5,49.14,320.5,49.14Z" style="fill:#22C55E;stroke:#263238;stroke-miterlimit:10"></path><path d="M282.11,86.59s-10-1.4-15.37,6.15-2.23,16.93-2.23,16.93,9-2.4,14.07-6.17S282.11,86.59,282.11,86.59Z" style="fill:#22C55E;stroke:#263238;stroke-miterlimit:10"></path><path d="M268.07,103.59c-.43.7-.82,1.39-1.17,2.06" style="fill:none;stroke:#263238;stroke-miterlimit:10"></path><path d="M280.94,87.46a117.77,117.77,0,0,0-11.79,14.41" style="fill:none;stroke:#263238;stroke-miterlimit:10"></path><path d="M282.32,74.73s-8.72-5-16.55,0-8.39,14.87-8.39,14.87,9.22,1.13,15.34-.46S282.32,74.73,282.32,74.73Z" style="fill:#22C55E;stroke:#263238;stroke-miterlimit:10"></path><path d="M298.19,46.65s-8.72-5-16.55,0-8.4,14.87-8.4,14.87,9.23,1.13,15.35-.47S298.19,46.65,298.19,46.65Z" style="fill:#22C55E;stroke:#263238;stroke-miterlimit:10"></path><path d="M265.07,83.85c-1,.77-1.93,1.6-2.9,2.52" style="fill:none;stroke:#263238;stroke-miterlimit:10"></path><path d="M280.48,76s-6.3,1.14-13.85,6.69" style="fill:none;stroke:#263238;stroke-miterlimit:10"></path><path d="M294.81,47.94S283.59,50.46,277,58" style="fill:none;stroke:#263238;stroke-miterlimit:10"></path><path d="M323.19,54.68c1.92,3.8,5.61,10.06,10.63,13.88" style="fill:none;stroke:#263238;stroke-miterlimit:10"></path><path d="M321.68,51.42s.28.71.83,1.87" style="fill:none;stroke:#263238;stroke-miterlimit:10"></path><path d="M296.74,118.07a18.26,18.26,0,0,0,.65,2.42" style="fill:none;stroke:#263238;stroke-miterlimit:10"></path><path d="M298.4,100s-2.73,8.65-1.93,16.25" style="fill:none;stroke:#263238;stroke-miterlimit:10"></path><path d="M317.7,89.17c1.72,4.48,4.9,11.12,9.64,14.92" style="fill:none;stroke:#263238;stroke-miterlimit:10"></path><path d="M316.13,84.52s.23.84.68,2.19" style="fill:none;stroke:#263238;stroke-miterlimit:10"></path></g><g id="freepik--Bunny--inject-440"><path d="M229.46,255l-3.1,4.12s-1-6.88-8.26-13.41a28.5,28.5,0,0,0-10.74-6.38,16.81,16.81,0,0,0-13.69,1.56c-8.25,4.82-13.76,26.49-15.82,46.45s-11,32.34-21.68,36.13c-5.06,1.79-11.81-1.75-17.26-7.87-6-6.8-10.5-16.79-9.23-26.2,2.41-17.89,17.54-56.77,28.21-68.12s36.47-9.29,52.3,4.13S229.46,255,229.46,255Z" style="fill:#fff;stroke:#263238;stroke-miterlimit:10"></path><path d="M207.36,239.3v0a16.81,16.81,0,0,0-13.69,1.56c-8.25,4.82-13.76,26.49-15.82,46.45s-11,32.34-21.68,36.13c-5.06,1.79-11.81-1.75-17.26-7.87,2.31-24.87,19-55.21,35.12-69C192,231.3,207.36,239.3,207.36,239.3Z" style="fill:#263238;stroke:#263238;stroke-miterlimit:10"></path><path d="M214.58,259.21s-35.1-14.45-54-15.83-44,36.13-48.52,55.06,5.51,55.73,16.52,58.14,29.59-5.85,29.93-27.87S161.6,279.24,170.2,270s29.58-7.64,32.33-5.92S213.54,263.68,214.58,259.21Z" style="fill:#fff;stroke:#263238;stroke-miterlimit:10"></path><path d="M168.13,270.57s-38.2,18.92-45.77,39.56,2.07,39.57,10,39.57,19.27-5.85,23.06-25.8-.33-33.23,3.11-40.11A62.13,62.13,0,0,1,168.13,270.57Z" style="fill:#22C55E;stroke:#263238;stroke-miterlimit:10"></path><path d="M159.52,285.36a39.58,39.58,0,0,1,8.61-14.79s-27.74,13.75-40.62,30.59c5.07-4.9,15.72-14.53,21.18-14.53,4.5,0,6.92,10.4,8.37,19.13C157.52,295.85,158.11,290.29,159.52,285.36Z" style="fill:#263238;stroke:#263238;stroke-miterlimit:10"></path><path d="M393.72,289.13s4.25,18,3.6,22.25-8.51,6.55-8.51,6.55Z" style="fill:#fff;stroke:#263238;stroke-miterlimit:10"></path><ellipse cx="247.02" cy="429.05" rx="73.08" ry="13.88" style="fill:#263238;stroke:#263238;stroke-miterlimit:10"></ellipse><path d="M280.38,364.05,333,313.13s2.41-7.91,6.54-12.73,7.57-4.47,22-5.16,26.58,6,25.89,11.12-7.66,18.47-22.45,22.25S340.93,331,340.93,331l-57.11,84.3Z" style="fill:#fff;stroke:#263238;stroke-miterlimit:10"></path><path d="M407,254.66c0,31-20.82,56.14-46.5,56.14S314,285.66,314,254.66s20.82-70.36,46.5-70.36S407,223.65,407,254.66Z" style="fill:#22C55E;stroke:#263238;stroke-miterlimit:10"></path><path d="M385.58,197.31c1.63,3.4,2.45,7.88-1,12.06-6.77,8.28-15.3-17.36-16.54-3-.76,8.65,1.12,26.32-4.14,25.19-10.46-2.24-13.16-28.95-18.8-12.78s0,34.59-10.53,36.47-6.77-20.68-13.16-11.28c-3.68,5.4-5.36,15.28-6.13,23.7,2.48,12.63,8.5,23.61,16.72,31.32.74-10.85,1.46-26.3,6.33-23.43,6.39,3.76,7.14,18.42,12.78,7.52s6.4-37.61,11.66-29.71,14.67,19.18,16.92,10.15.38-34.59,7.52-29.7,15,25.57,16.55,11.28c.33-3.16.72-6,1.12-8.6C401.6,221.83,394.67,207.3,385.58,197.31Z" style="fill:#fff;stroke:#263238;stroke-miterlimit:10"></path><path d="M396.26,260.33A5.29,5.29,0,1,1,391,254.5,5.57,5.57,0,0,1,396.26,260.33Z" style="fill:#fff;stroke:#263238;stroke-miterlimit:10"></path><path d="M370.31,271.8a5.45,5.45,0,1,1-5.45-5.27A5.36,5.36,0,0,1,370.31,271.8Z" style="fill:#fff;stroke:#263238;stroke-miterlimit:10"></path><path d="M383.85,283.83a5.46,5.46,0,1,1-5.45-5.26A5.35,5.35,0,0,1,383.85,283.83Z" style="fill:#fff;stroke:#263238;stroke-miterlimit:10"></path><path d="M338,235c0,3.32-2.1,6-4.7,6s-4.7-2.69-4.7-6,2.11-6,4.7-6S338,231.62,338,235Z" style="fill:#fff;stroke:#263238;stroke-miterlimit:10"></path><path d="M362.79,209.94a4.14,4.14,0,1,1-4.13-3.95A4,4,0,0,1,362.79,209.94Z" style="fill:#fff;stroke:#263238;stroke-miterlimit:10"></path><path d="M368.81,190c0,1.56-1.94,2.82-4.33,2.82s-4.32-1.26-4.32-2.82,1.94-2.82,4.32-2.82S368.81,188.45,368.81,190Z" style="fill:#fff;stroke:#263238;stroke-miterlimit:10"></path><path d="M346.25,204.49a4.71,4.71,0,1,1-4.7-4.89A4.79,4.79,0,0,1,346.25,204.49Z" style="fill:#fff;stroke:#263238;stroke-miterlimit:10"></path><path d="M363.92,292.67a5.09,5.09,0,1,1-5.08-5.46A5.27,5.27,0,0,1,363.92,292.67Z" style="fill:#fff;stroke:#263238;stroke-miterlimit:10"></path><line x1="306.54" y1="218.58" x2="308.7" y2="219.27" style="fill:#fff;stroke:#263238;stroke-miterlimit:10"></line><line x1="294.02" y1="214.6" x2="303.14" y2="217.5" style="fill:#fff;stroke:#263238;stroke-miterlimit:10"></line><line x1="316.04" y1="175.23" x2="329.38" y2="189.24" style="fill:#fff;stroke:#263238;stroke-miterlimit:10"></line><line x1="359.41" y1="171.76" x2="359.41" y2="175.9" style="fill:#fff;stroke:#263238;stroke-miterlimit:10"></line><line x1="359.41" y1="161.22" x2="359.41" y2="168.65" style="fill:#fff;stroke:#263238;stroke-miterlimit:10"></line><line x1="387.43" y1="185.24" x2="395.43" y2="175.23" style="fill:#fff;stroke:#263238;stroke-miterlimit:10"></line><line x1="415.24" y1="205.08" x2="421.45" y2="202.59" style="fill:#fff;stroke:#263238;stroke-miterlimit:10"></line><line x1="404.77" y1="209.26" x2="413.09" y2="205.93" style="fill:#fff;stroke:#263238;stroke-miterlimit:10"></line><path d="M179.74,345.3a122.2,122.2,0,0,0,22.16,10.92c11.19,3.89,29.42,5.62,29.42,5.62l3.4,15.08-7.78,2.92,4.31,62.76c5.08.21,10.36.32,15.77.32a323.67,323.67,0,0,0,42.53-2.59l-13.47-72.17-10.22,1.95-1.46-12.65s26.76-12.65,34.06-24.33,4.87-20.92,4.87-20.92,3.4,3.41,4.38-.49-3.41-11.67-3.41-11.67,7.3,0,3.89-4.87-18.8-20.25-26.09-26.09-24-11.37-24-11.37,9.73-6.81,7.78-8.76-18.49-1-18.49-1,12.65-12.17,7.3-13.63-25.3,16.55-25.3,16.55,2.92-13.14-2.92-9.73-7.3,13.62-7.3,13.62-13.13,8.76-19.94,14.11c0,0-30.17,22.38-36.5,40.87s-.48,26.76-.48,26.76l8.27-7.3s-5.35,12.65-.49,18S179.74,345.3,179.74,345.3Z" style="fill:#fff;stroke:#263238;stroke-miterlimit:10"></path><path d="M188.93,420.63H177.36v4.21A44.48,44.48,0,0,1,188.93,420.63Z" style="fill:#263238;stroke:#263238;stroke-miterlimit:10"></path><path d="M234.72,376.92l-7.78,2.92.39,5.63,37.31-26-.24-2.06s7.27-3.44,15.27-8.38l10.46-7.28.5-.41c-24.63,15.77-59.31,20.45-59.31,20.45Z" style="fill:#263238;stroke:#263238;stroke-miterlimit:10"></path><path d="M220.68,304.43c2.33,4.05-1.13,10.41-7.72,14.19s-13.81,3.56-16.14-.49,1.12-10.41,7.71-14.19S218.35,300.37,220.68,304.43Z" style="fill:#22C55E"></path><path d="M297.64,295.83c-.74,3.48-5.93,5.32-11.58,4.11s-9.63-5-8.89-8.49,5.93-5.31,11.58-4.11S298.39,292.35,297.64,295.83Z" style="fill:#22C55E"></path><path d="M247.53,326.46s1.14,13.67,6.45,15.19,8-20.88,8-20.88S251.32,326.84,247.53,326.46Z" style="fill:#263238;stroke:#263238;stroke-miterlimit:10"></path><path d="M256.1,324.15l5.61,15.36,7.48-3.26,4.74-19.52s-5.46-.08-8.35-3C265.58,313.76,260,321.55,256.1,324.15Z" style="fill:#fff;stroke:#263238;stroke-miterlimit:10"></path><line x1="265.58" y1="313.76" x2="265.29" y2="326.81" style="fill:none;stroke:#263238;stroke-miterlimit:10"></line><path d="M232.45,313.3c1.38,5.06,6.9,15.19,17.94,13.35s15.19-12.89,15.19-12.89,1.38,4.6,9.2,2.76S278.92,300,278.92,300" style="fill:#fff;stroke:#263238;stroke-miterlimit:10"></path><line x1="236.13" y1="311" x2="227.84" y2="315.14" style="fill:none;stroke:#263238;stroke-miterlimit:10"></line><line x1="277.46" y1="299.82" x2="281.95" y2="301.21" style="fill:none;stroke:#263238;stroke-miterlimit:10"></line><path d="M242.34,292.08c1.07,2.57.93,5.07-.32,5.59s-3.12-1.14-4.19-3.71-.93-5.08.31-5.6S241.26,289.51,242.34,292.08Z" style="fill:#263238;stroke:#263238;stroke-miterlimit:10"></path><path d="M240.59,292.86a1.42,1.42,0,1,1-1.82-1.06A1.48,1.48,0,0,1,240.59,292.86Z" style="fill:#fff"></path><path d="M262.69,285.31c1.07,2.57.93,5.07-.32,5.59s-3.12-1.14-4.19-3.71-.93-5.08.31-5.6S261.61,282.74,262.69,285.31Z" style="fill:#263238;stroke:#263238;stroke-miterlimit:10"></path><path d="M260.42,286a1.5,1.5,0,0,1-.9,1.91,1.56,1.56,0,1,1,.9-1.91Z" style="fill:#fff"></path><path d="M227.5,289.51s-4.66-3.56-.62-10.8,9.82-6.48,8.41-3.58S226,285.2,227.5,289.51Z" style="fill:#263238;stroke:#263238;stroke-miterlimit:10"></path><path d="M265.42,273.23s.11-5.87-8.08-7.2-11.17,3.67-8,4.36S263,269.39,265.42,273.23Z" style="fill:#263238;stroke:#263238;stroke-miterlimit:10"></path><path d="M265.24,299s-12,1.84-12,5.53,8.74,8.74,13.8,4.6S269.39,298,265.24,299Z" style="fill:#22C55E;stroke:#263238;stroke-miterlimit:10"></path><path d="M243,303.64s13.24-10.72,25.85-10.72" style="fill:none;stroke:#263238;stroke-miterlimit:10"></path><path d="M247,442.92a312.44,312.44,0,0,0,46-3.09l-9.15-44.12-49.2,6.53L225,404l-7.23,37.8C226.71,442.51,236.61,442.92,247,442.92Z" style="fill:#a8a8a8;stroke:#263238;stroke-miterlimit:10"></path><polygon points="271.34 407.33 239.79 412.97 241.48 436.07 262.33 441.14 275.29 432.13 271.34 407.33" style="fill:#a8a8a8;stroke:#263238;stroke-miterlimit:10"></polygon><path d="M218.09,441.79l14.12-36.45s-2.07-25.81-11.7-21c0,0-5.51,1.38-10.32,10.67-4,7.79-12.43,35.15-15,43.8A220.36,220.36,0,0,0,218.09,441.79Z" style="fill:#fff;stroke:#263238;stroke-miterlimit:10"></path><path d="M234.72,376.92,218.44,383l9,45.65a8.88,8.88,0,0,0,10.43,7h0a8.87,8.87,0,0,0,7-10.54Z" style="fill:#a8a8a8;stroke:#263238;stroke-miterlimit:10"></path><path d="M265.86,370.11l1.47,50.77a9.24,9.24,0,0,0,11.06,8.8h0a9.24,9.24,0,0,0,7.4-9.93l-4.38-57.08Z" style="fill:#a8a8a8;stroke:#263238;stroke-miterlimit:10"></path><circle cx="235.99" cy="425.3" r="4.13" style="fill:#fff;stroke:#263238;stroke-miterlimit:10"></circle><circle cx="276.94" cy="418.07" r="4.13" style="fill:#fff;stroke:#263238;stroke-miterlimit:10"></circle><path d="M185.41,419.1s-10.32-3.44-16.51,2.75-2.75,16.18.69,17.55,5.85-.69,6.88-4.47A34.21,34.21,0,0,1,185.41,419.1Z" style="fill:#fff;stroke:#263238;stroke-miterlimit:10"></path><path d="M203,424.26s-7.91-8.25-16.86-6.53-14.79,19.26-10,22,12-2.07,12-2.07S194,425.64,203,424.26Z" style="fill:#fff;stroke:#263238;stroke-miterlimit:10"></path><path d="M217.76,441.81s.34-17.89-12.73-20.3-23.4,12.73-20,18.92,17.55,2.41,17.55,2.41S217.41,445.6,217.76,441.81Z" style="fill:#fff;stroke:#263238;stroke-miterlimit:10"></path><path d="M385.87,300.91s.65-12.76,5.56-12.76,1.64,21.6,0,27.48-19,7.2-19,7.2l11.13-17.67Z" style="fill:#fff;stroke:#263238;stroke-miterlimit:10"></path><path d="M351.51,316.29a33.17,33.17,0,0,1,12.11-7.2,45.34,45.34,0,0,1,12.43-2.29s0-19,6.54-19,3.93,19.31,1.64,26.51-11.45,12.43-18.65,14.39a26.93,26.93,0,0,1-13.09.33" style="fill:#fff;stroke:#263238;stroke-miterlimit:10"></path></g></svg>