<svg width="201" height="145" viewBox="0 0 201 145" fill="none" xmlns="http://www.w3.org/2000/svg">
<g clip-path="url(#clip0_10_45)">
<path d="M47.2727 144.636C38.3636 144.636 30.4242 143.091 23.4545 140C16.4848 136.848 10.9697 132.212 6.90912 126.091C2.90912 119.909 0.909119 112.212 0.909119 103C0.909119 95.2424 2.33336 88.7273 5.18185 83.4545C8.03033 78.1818 11.9091 73.9394 16.8182 70.7273C21.7273 67.5151 27.303 65.0909 33.5455 63.4545C39.8485 61.8182 46.4545 60.6667 53.3636 60C61.4849 59.1515 68.0303 58.3636 73 57.6364C77.9697 56.8485 81.5758 55.697 83.8182 54.1818C86.0606 52.6667 87.1818 50.4242 87.1818 47.4545V46.9091C87.1818 41.1515 85.3636 36.697 81.7273 33.5454C78.1515 30.3939 73.0606 28.8182 66.4545 28.8182C59.4848 28.8182 53.9394 30.3636 49.8182 33.4545C45.697 36.4848 42.9697 40.303 41.6364 44.9091L5.81821 42C7.63639 33.5151 11.2121 26.1818 16.5455 20C21.8788 13.7576 28.7576 8.96971 37.1818 5.63637C45.6667 2.24244 55.4849 0.545471 66.6364 0.545471C74.3939 0.545471 81.8182 1.45456 88.9091 3.27274C96.0606 5.09093 102.394 7.90911 107.909 11.7273C113.485 15.5455 117.879 20.4545 121.091 26.4545C124.303 32.3939 125.909 39.5151 125.909 47.8182V142H89.1818V122.636H88.0909C85.8485 127 82.8485 130.848 79.0909 134.182C75.3333 137.455 70.8182 140.03 65.5455 141.909C60.2727 143.727 54.1818 144.636 47.2727 144.636ZM58.3636 117.909C64.0606 117.909 69.0909 116.788 73.4545 114.545C77.8182 112.242 81.2424 109.152 83.7273 105.273C86.2121 101.394 87.4546 97 87.4546 92.0909V77.2727C86.2424 78.0606 84.5758 78.7879 82.4546 79.4545C80.3939 80.0606 78.0606 80.6364 75.4546 81.1818C72.8485 81.6667 70.2424 82.1212 67.6364 82.5455C65.0303 82.9091 62.6667 83.2424 60.5455 83.5455C56 84.2121 52.0303 85.2727 48.6364 86.7273C45.2424 88.1818 42.6061 90.1515 40.7273 92.6364C38.8485 95.0606 37.9091 98.0909 37.9091 101.727C37.9091 107 39.8182 111.03 43.6364 113.818C47.5152 116.545 52.4242 117.909 58.3636 117.909ZM178.591 144.364C172.591 144.364 167.439 142.242 163.136 138C158.894 133.697 156.773 128.545 156.773 122.545C156.773 116.606 158.894 111.515 163.136 107.273C167.439 103.03 172.591 100.909 178.591 100.909C184.409 100.909 189.5 103.03 193.864 107.273C198.227 111.515 200.409 116.606 200.409 122.545C200.409 126.545 199.379 130.212 197.318 133.545C195.318 136.818 192.682 139.455 189.409 141.455C186.136 143.394 182.53 144.364 178.591 144.364Z" fill="black"/>
</g>
<defs>
<clipPath id="clip0_10_45">
<rect width="201" height="145" fill="white"/>
</clipPath>
</defs>
</svg>
